<svg id="Layer_1" data-name="Layer 1" xmlns="http://www.w3.org/2000/svg" viewBox="0 0 262.23 84.75"><defs><style>.cls-1,.cls-2{fill:#f5f5f5;}.cls-2{fill-rule:evenodd;}</style></defs><path class="cls-1" d="M21.09,157.53l20.43,14.18L22.22,156a1,1,0,0,0-1.35.17h0A.93.93,0,0,0,21.09,157.53Z" transform="translate(1.64 -142.98)"/><path class="cls-1" d="M26.18,166.17,41,172.39,26.7,165.06a.62.62,0,0,0-.84.29h0A.61.61,0,0,0,26.18,166.17Z" transform="translate(1.64 -142.98)"/><path class="cls-1" d="M34.42,162a.43.43,0,0,0,0,.61l7.55,8.32L35,162a.43.43,0,0,0-.62-.06Z" transform="translate(1.64 -142.98)"/><path class="cls-1" d="M32.56,158.29l-.7,2.81-1.07-2.69-2.9.2,2.23-1.87L29,154.05l2.45,1.55,2.23-1.86L33,156.56l2.46,1.54Zm-.31-2.24-.68.59-.79-.49.34.85-.7.58.92-.05.34.85.22-.9.91,0-.77-.49Z" transform="translate(1.64 -142.98)"/><polygon class="cls-2" points="30.79 15.12 32.7 14.99 33.41 16.76 33.87 14.92 35.77 14.79 34.17 13.78 34.62 11.92 33.16 13.14 31.55 12.13 32.26 13.9 30.79 15.12"/><path class="cls-1" d="M259.3,217.82l-21.53-10.59,20.67,12.18a.89.89,0,0,0,1.25-.35h0A.9.9,0,0,0,259.3,217.82Z" transform="translate(1.64 -142.98)"/><path class="cls-1" d="M253.2,210.31l-15-3.8,14.69,4.94a.59.59,0,0,0,.76-.4h0A.6.6,0,0,0,253.2,210.31Z" transform="translate(1.64 -142.98)"/><path class="cls-1" d="M246,215.52a.4.4,0,0,0,0-.58l-8.4-6.86,7.85,7.47a.42.42,0,0,0,.6,0Z" transform="translate(1.64 -142.98)"/><path class="cls-1" d="M248.24,218.74l.27-2.78,1.41,2.42,2.73-.61-1.85,2.1,1.42,2.42-2.57-1.13-1.86,2.09.28-2.79-2.57-1.12Zm.62,2.1.57-.67.82.36-.45-.76.59-.66-.87.18-.45-.75-.09.88-.85.19.81.34Z" transform="translate(1.64 -142.98)"/><polygon class="cls-2" points="253.16 75.47 251.36 75.85 250.43 74.28 250.25 76.09 248.46 76.5 250.14 77.23 249.97 79.07 251.19 77.69 252.87 78.43 251.94 76.84 253.16 75.47"/><path class="cls-1" d="M258.77,159.42l-24,17.84,25.27-16a1.15,1.15,0,0,0,.33-1.61h0A1.14,1.14,0,0,0,258.77,159.42Z" transform="translate(1.64 -142.98)"/><path class="cls-1" d="M247.93,172.63,235.59,178l12.72-4.44a.51.51,0,0,0,.31-.68h0A.51.51,0,0,0,247.93,172.63Z" transform="translate(1.64 -142.98)"/><path class="cls-1" d="M254.91,171.37l3.66.94-3.5,1.4.22,3.77-2.41-2.9-3.51,1.4,2-3.21L249,169.85l3.66,1,2-3.21Zm-2.92.4.76.92-.64,1,1.11-.44.76.93L253.9,173l1.12-.43-1.16-.31-.09-1.16-.63,1Z" transform="translate(1.64 -142.98)"/><polygon class="cls-2" points="256.27 32.85 256.13 30.36 258.43 29.44 256.02 28.83 255.86 26.35 254.52 28.45 252.11 27.85 253.71 29.75 252.38 31.85 254.69 30.94 256.27 32.85"/><path class="cls-1" d="M7.55,221.08l17.76-10L6.84,219.7a.77.77,0,0,0-.36,1.06h0A.77.77,0,0,0,7.55,221.08Z" transform="translate(1.64 -142.98)"/><path class="cls-1" d="M15.58,212.83a.36.36,0,0,0,.44.25l8.82-2.58-9,1.89a.35.35,0,0,0-.27.44Z" transform="translate(1.64 -142.98)"/><path class="cls-1" d="M2.1,224.33l-3.74.58,2.7-2.65-1.7-3.38,3.36,1.72,2.67-2.67-.6,3.75,3.37,1.74L4.42,224l-.62,3.74Zm2.54-1.5-1.07-.54.2-1.17-.85.83-1-.54.52,1.06-.85.84,1.19-.17.53,1.05.2-1.17Z" transform="translate(1.64 -142.98)"/><polygon class="cls-2" points="2.23 77.15 3.37 79.39 1.59 81.13 4.06 80.75 5.16 82.98 5.58 80.53 8.03 80.15 5.83 79.01 6.23 76.55 4.46 78.3 2.23 77.15"/><path class="cls-1" d="M14.74,182l2.84-2.49-.84,3.67L20,185.07l-3.77.35-.83,3.68-1.49-3.46-3.77.35L13,183.48,11.48,180Zm-1.33,2.63,1.19-.13.46,1.11.27-1.16,1.18-.11-1-.61.26-1.17-.89.79-1-.6.47,1.08Z" transform="translate(1.64 -142.98)"/><polygon class="cls-2" points="19.9 41.71 17.75 40.43 18.3 38 16.44 39.65 14.31 38.38 15.28 40.66 13.41 42.3 15.88 42.08 16.86 44.35 17.42 41.93 19.9 41.71"/><path class="cls-1" d="M251.72,192.26l1.73-1.53-.51,2.25,2,1.18-2.3.21-.51,2.26-.91-2.12-2.31.22,1.74-1.54-.91-2.12Zm-.81,1.61.72-.08.28.67.17-.71.72-.07-.62-.37.16-.71-.55.48-.62-.36.28.66Z" transform="translate(1.64 -142.98)"/><polygon class="cls-2" points="255.51 50.95 254.2 50.17 254.54 48.68 253.4 49.69 252.09 48.92 252.68 50.31 251.55 51.31 253.06 51.18 253.66 52.57 253.99 51.08 255.51 50.95"/><path class="cls-1" d="M141.66,144.5l1.73-1.52-.51,2.24,2,1.19-2.31.21-.5,2.25-.91-2.11-2.3.21,1.73-1.54-.91-2.12Zm-.81,1.61.72-.08.29.67.16-.7.72-.07-.62-.37.16-.71-.55.48-.63-.37.3.66Z" transform="translate(1.64 -142.98)"/><polygon class="cls-2" points="145.45 3.19 144.14 2.42 144.47 0.93 143.33 1.94 142.03 1.16 142.63 2.55 141.49 3.56 143 3.42 143.6 4.81 143.94 3.33 145.45 3.19"/><path class="cls-1" d="M230.51,190.71l29.07-7.49c1.63-.42,1.19-1.59-.64-1.72l-40.69-2.72c-1.28-.08-2-.74-1.47-1.3l3.91-3.94c.58-.58-.24-1.25-1.58-1.3-3.18-.12-8.68-.3-14.26-.42-1.25,0-2.11-.6-1.76-1.17l8.75-14.08c.46-.74-1.09-1.4-2.58-1.1L168,163.76a2.81,2.81,0,0,1-2.56-.55l-2.82-4.08c-.45-.66-2.23-.85-3.22-.33L153,162.13a3.51,3.51,0,0,1-2.72.05l-35.75-16c-1.17-.52-3.07-.17-3.22.59L108.41,162c-.13.69-1.75,1.06-3,.69L96.71,160c-1.22-.38-2.85,0-3,.69a30.79,30.79,0,0,0-.28,8.32c.09.67-1.28,1.16-2.59.92l-46.4-8.47c-1.82-.33-3.39.7-2.17,1.43l22.45,13.41c1,.61.07,1.51-1.56,1.49-6.54-.1-12.62-.23-16.51-.33-1.66,0-2.62.89-1.57,1.5l9.8,5.69c.83.48.42,1.22-.8,1.44l-42.94,7.74c-1.87.34-1.54,1.65.45,1.77l46.63,2.68c1.59.09,2.26,1,1.13,1.55-6.18,3-12.62,6.16-16.55,8.12-1.26.62-.16,1.65,1.64,1.54l55.09-3.57c1-.07,2,.27,2.14.75l4.15,11.7c.23.65,1.79,1,2.94.61l29.48-9.29a3.54,3.54,0,0,1,2.48.15l9.43,5a3.42,3.42,0,0,0,3-.08l11-7.3a3.19,3.19,0,0,1,2-.36l59.74,7c1.54.18,2.85-.57,2.2-1.26l-10.72-11.56c-.54-.58.29-1.23,1.61-1.28l20.75-.74c1.6-.06,2.35-1,1.25-1.54l-11-5.61C229.17,191.7,229.41,191,230.51,190.71Z" transform="translate(1.64 -142.98)"/></svg>