<svg id="Layer_1" data-name="Layer 1" xmlns="http://www.w3.org/2000/svg" viewBox="0 0 166.23 156.01"><defs><style>.cls-1,.cls-5{fill:#965a29;}.cls-1,.cls-2,.cls-3,.cls-4,.cls-6{stroke:#8c6338;}.cls-1,.cls-2,.cls-3,.cls-4{stroke-miterlimit:10;}.cls-1,.cls-10,.cls-2,.cls-3,.cls-4,.cls-6{stroke-width:2px;}.cls-2{fill:#ffc9c9;}.cls-3{fill:#ebb065;}.cls-4{fill:#fcb465;}.cls-10,.cls-6{fill:none;stroke-linecap:round;stroke-linejoin:round;}.cls-7{fill:#8c6338;}.cls-8{fill:#f5f5f5;}.cls-9{fill:#216640;}.cls-10{stroke:#f5f5f5;}</style></defs><path class="cls-1" d="M127,46.81c8.84-9.58,20.6-16.49,31.85-23.09,1-.61,2.29-1.24,3.43-.8s1.59,1.6,2,2.68c4.61,12.41,2.34,30.12-1.14,43.56-3.4-2.11-6.91-4.07-10.31-6.19Z" transform="translate(-15.64 -21.78)"/><path class="cls-2" d="M159.72,60.57a38,38,0,0,1-1.21,3.9c-1.32-1.07-4.89-3.45-8.82-6-6.41-4.1-13.74-8.62-13.74-8.62h0c6.34-6,17.23-14.16,24.88-18a.5.5,0,0,1,.05.13C163.31,38,162.08,51.63,159.72,60.57Z" transform="translate(-15.64 -21.78)"/><path class="cls-3" d="M66,49.53c-9.86-9.18-22.5-15.38-34.6-21.3-1.13-.55-2.46-1.09-3.6-.56s-1.51,1.77-1.84,2.92c-3.79,13.14-.08,31.2,4.55,44.77,3.34-2.44,6.8-4.73,10.14-7.18Z" transform="translate(-15.64 -21.78)"/><path class="cls-2" d="M57,53.38c-7-5.64-18.85-13.26-27-16.64-2.41,7.31,1.12,25.16,5,33.42C38.23,67,57,53.38,57,53.38Z" transform="translate(-15.64 -21.78)"/><path class="cls-4" d="M146.13,53.09C124.47,40.21,96.8,36.14,72.21,44A87,87,0,0,0,37.62,64.72c-12.1,12-19.66,29.22-20.85,46.36-1.9,27.39,17.32,49.37,41.67,59.28a87.47,87.47,0,0,0,29.16,6.26c14.67.63,29.7-.42,43.83-4.27,19.83-5.4,40.87-20.57,47.46-41.17,6.77-21.13-4.87-50.07-18.52-66.2A56,56,0,0,0,146.13,53.09Z" transform="translate(-15.64 -21.78)"/><path class="cls-5" d="M76,85.25c-17.16-9.58-39.39-3.18-47.93,15-4,8.48-5.16,19.35-1.66,28.19,7,17.56,37.12,20.66,51.37,11.25C95.67,127.85,91.59,94,76,85.25Z" transform="translate(-15.64 -21.78)"/><path class="cls-6" d="M98.82,139.8a8.5,8.5,0,0,1-1.55,5.34,5.53,5.53,0,0,1-6.56,1.27,6.29,6.29,0,0,1-3.29-5.94" transform="translate(-15.64 -21.78)"/><path class="cls-6" d="M98.94,139.33c.37,1.92.87,4,2.32,5.28,4.29,3.88,10.12,0,9.33-5.72" transform="translate(-15.64 -21.78)"/><path class="cls-7" d="M104.46,131.71c5,.45-2.77,7.8-5,8a6.38,6.38,0,0,1-3.14-.92c-3-1.4-6.9-4.4-3.16-6.13C96,131.31,101.38,131.43,104.46,131.71Z" transform="translate(-15.64 -21.78)"/><ellipse class="cls-8" cx="136.31" cy="118.25" rx="21.01" ry="17.57" transform="translate(-20 -16.56) rotate(-2.16)"/><path class="cls-9" d="M142.22,120.25a13,13,0,1,1-13.5-12.52A13,13,0,0,1,142.22,120.25Z" transform="translate(-15.64 -21.78)"/><path class="cls-8" d="M39.21,121.91c.36,9.69,10.06,17.19,21.66,16.76S81.56,130,81.2,120.32s-10.06-17.2-21.66-16.76S38.84,112.21,39.21,121.91Z" transform="translate(-15.64 -21.78)"/><path class="cls-9" d="M53.85,123.58a13,13,0,1,0,12.52-13.5A13,13,0,0,0,53.85,123.58Z" transform="translate(-15.64 -21.78)"/><path class="cls-8" d="M139.42,112.6a3.18,3.18,0,1,1-3.3-3A3.18,3.18,0,0,1,139.42,112.6Z" transform="translate(-15.64 -21.78)"/><path class="cls-8" d="M77.74,114.93a3.18,3.18,0,1,1-3.3-3.06A3.18,3.18,0,0,1,77.74,114.93Z" transform="translate(-15.64 -21.78)"/><path class="cls-10" d="M140.87,142.36l16.84-5" transform="translate(-15.64 -21.78)"/><path class="cls-10" d="M141.41,148.54a194.5,194.5,0,0,1,19.61.84" transform="translate(-15.64 -21.78)"/><path class="cls-10" d="M56.18,141.92A141.74,141.74,0,0,1,38,139.69" transform="translate(-15.64 -21.78)"/><path class="cls-10" d="M57.07,149c-4,1-13.52,2.62-17.18,3.52" transform="translate(-15.64 -21.78)"/><path class="cls-5" d="M77.66,42.48c1.62,8.66,3.6,21.14,2.94,27.73-.36,3.66-4.94-3.21-5.8-4.47-1-1.53-6.78-10.59-11.46-17.19A75.81,75.81,0,0,1,77.66,42.48Z" transform="translate(-15.64 -21.78)"/><path class="cls-5" d="M114.71,41.69c-1.62,8.65-3.59,21.13-2.94,27.73.36,3.66,4.94-3.21,5.8-4.47,1.05-1.53,7.63-13.07,12.31-19.68C125.29,42.76,119.65,43.18,114.71,41.69Z" transform="translate(-15.64 -21.78)"/><path class="cls-5" d="M88.31,40.16c5.42,0,11.08-.8,16.06-.27-2,9.76-5.14,23.59-8.37,30.19-1.8,3.71-3.25-5.41-3.54-7.1C92.09,60.72,90.12,49.13,88.31,40.16Z" transform="translate(-15.64 -21.78)"/></svg>