<svg id="Layer_1" data-name="Layer 1" xmlns="http://www.w3.org/2000/svg" viewBox="0 0 166.23 156.01"><defs><style>.cls-1,.cls-5{fill:#965a29;}.cls-1,.cls-2,.cls-3,.cls-4,.cls-8{stroke:#8c6338;}.cls-1,.cls-2,.cls-3,.cls-4{stroke-miterlimit:10;}.cls-1,.cls-2,.cls-3,.cls-4,.cls-7,.cls-8{stroke-width:2px;}.cls-2{fill:#ffc9c9;}.cls-3{fill:#ebb065;}.cls-4{fill:#fcb465;}.cls-6{fill:#8c6338;}.cls-7,.cls-8{fill:none;stroke-linecap:round;stroke-linejoin:round;}.cls-7{stroke:#f5f5f5;}.cls-9{fill:#663a1d;}.cls-10{fill:#c51e1e;}</style></defs><path class="cls-1" d="M127,46.81c8.84-9.58,20.6-16.49,31.85-23.09,1-.61,2.29-1.24,3.43-.8s1.59,1.6,2,2.68c4.61,12.41,2.34,30.12-1.14,43.56-3.4-2.11-6.91-4.07-10.31-6.19Z" transform="translate(-15.64 -21.78)"/><path class="cls-2" d="M159.72,60.57a38,38,0,0,1-1.21,3.9c-1.32-1.07-4.89-3.45-8.82-6-6.41-4.1-13.74-8.62-13.74-8.62h0c6.34-6,17.23-14.16,24.88-18a.5.5,0,0,1,.05.13C163.31,38,162.08,51.63,159.72,60.57Z" transform="translate(-15.64 -21.78)"/><path class="cls-3" d="M66,49.53c-9.86-9.18-22.5-15.38-34.6-21.3-1.13-.55-2.46-1.09-3.6-.56s-1.51,1.77-1.84,2.92c-3.79,13.14-.08,31.2,4.55,44.77,3.34-2.44,6.8-4.73,10.14-7.18Z" transform="translate(-15.64 -21.78)"/><path class="cls-2" d="M57,53.38c-7-5.64-18.85-13.26-27-16.64-2.41,7.31,1.12,25.16,5,33.42C38.23,67,57,53.38,57,53.38Z" transform="translate(-15.64 -21.78)"/><path class="cls-4" d="M146.13,53.09C124.47,40.21,96.8,36.14,72.21,44A87,87,0,0,0,37.62,64.72c-12.1,12-19.66,29.22-20.85,46.36-1.9,27.39,17.32,49.37,41.67,59.28a87.47,87.47,0,0,0,29.16,6.26c14.67.63,29.7-.42,43.83-4.27,19.83-5.4,40.87-20.57,47.46-41.17,6.77-21.13-4.87-50.07-18.52-66.2A56,56,0,0,0,146.13,53.09Z" transform="translate(-15.64 -21.78)"/><path class="cls-5" d="M76,85.25c-17.16-9.58-39.39-3.18-47.93,15-4,8.48-5.16,19.35-1.66,28.19,7,17.56,37.12,20.66,51.37,11.25C95.67,127.85,91.59,94,76,85.25Z" transform="translate(-15.64 -21.78)"/><path class="cls-6" d="M108.46,118.71c5,.45-2.77,7.8-5,8a6.38,6.38,0,0,1-3.14-.92c-3-1.4-6.9-4.4-3.16-6.13C100,118.31,105.38,118.43,108.46,118.71Z" transform="translate(-15.64 -21.78)"/><path class="cls-7" d="M140.87,142.36l16.84-5" transform="translate(-15.64 -21.78)"/><path class="cls-7" d="M141.41,148.54a194.5,194.5,0,0,1,19.61.84" transform="translate(-15.64 -21.78)"/><path class="cls-7" d="M56.18,141.92A141.74,141.74,0,0,1,38,139.69" transform="translate(-15.64 -21.78)"/><path class="cls-7" d="M57.07,149c-4,1-13.52,2.62-17.18,3.52" transform="translate(-15.64 -21.78)"/><path class="cls-5" d="M77.66,42.48c1.62,8.66,3.6,21.14,2.94,27.73-.36,3.66-4.94-3.21-5.8-4.47-1-1.53-6.78-10.59-11.46-17.19A75.81,75.81,0,0,1,77.66,42.48Z" transform="translate(-15.64 -21.78)"/><path class="cls-5" d="M114.71,41.69c-1.62,8.65-3.59,21.13-2.94,27.73.36,3.66,4.94-3.21,5.8-4.47,1.05-1.53,7.63-13.07,12.31-19.68C125.29,42.76,119.65,43.18,114.71,41.69Z" transform="translate(-15.64 -21.78)"/><path class="cls-5" d="M88.31,40.16c5.42,0,11.08-.8,16.06-.27-2,9.76-5.14,23.59-8.37,30.19-1.8,3.71-3.25-5.41-3.54-7.1C92.09,60.72,90.12,49.13,88.31,40.16Z" transform="translate(-15.64 -21.78)"/><path class="cls-8" d="M109.88,136.27c-2-5-7-8-7-8s-5,4-7,9" transform="translate(-15.64 -21.78)"/><line class="cls-8" x1="87.12" y1="103.21" x2="87.23" y2="106.5"/><path class="cls-9" d="M62.88,100.27c1.7,1.25,3.27,2.62,4.85,4s3.08,2.79,4.56,4.23c3,2.89,5.82,5.88,8.58,9a2,2,0,0,1-1.6,3.33c-2.3-.13-4.59-.28-6.87-.48s-4.58-.41-6.86-.69-4.56-.62-6.84-1-4.56-.79-6.82-1.36c2.31-.32,4.62-.45,6.92-.61s4.61-.2,6.91-.21,4.6,0,6.89,0,4.59.15,6.88.28l-1.6,3.32c-2.74-3.08-5.39-6.26-7.92-9.54-1.27-1.63-2.48-3.32-3.69-5S63.92,102.11,62.88,100.27Z" transform="translate(-15.64 -21.78)"/><path class="cls-6" d="M136.38,101.27c-1,1.84-2.23,3.55-3.4,5.28s-2.42,3.38-3.69,5c-2.53,3.28-5.18,6.46-7.92,9.54l-1.6-3.32q3.44-.19,6.88-.28c2.29,0,4.59-.08,6.89,0s4.6.11,6.91.21,4.61.29,6.93.61c-2.27.57-4.55,1-6.83,1.36s-4.55.7-6.84,1-4.57.49-6.86.69-4.57.35-6.87.48a2,2,0,0,1-2.1-1.89,2,2,0,0,1,.5-1.44c2.76-3.08,5.61-6.07,8.58-9,1.48-1.44,3-2.84,4.56-4.23S134.67,102.52,136.38,101.27Z" transform="translate(-15.64 -21.78)"/><path class="cls-10" d="M124.05,75.36a11,11,0,0,1,3.16,4.21,8.59,8.59,0,0,1,.7,2.71,6.27,6.27,0,0,1-.45,3,5.64,5.64,0,0,1-2,2.4,7.88,7.88,0,0,1-2.67,1.1,10.89,10.89,0,0,1-5.27-.26,47.79,47.79,0,0,0,4.65-1.68,5.5,5.5,0,0,0,2.93-2.59,7.35,7.35,0,0,0,.19-4.11A48.51,48.51,0,0,0,124.05,75.36Z" transform="translate(-15.64 -21.78)"/><path class="cls-10" d="M129.78,75.36a21.59,21.59,0,0,0,1.29,4.22,7,7,0,0,0,2.27,3,10.29,10.29,0,0,0,3.55,1.5l2.14.39a20.09,20.09,0,0,1,2.3.35,16.58,16.58,0,0,1-2.21.92,15.72,15.72,0,0,1-2.41.36,8.08,8.08,0,0,1-4.91-1.45,6.9,6.9,0,0,1-2.68-4.46A8,8,0,0,1,129.78,75.36Z" transform="translate(-15.64 -21.78)"/><path class="cls-10" d="M126.38,95.27a7.74,7.74,0,0,1,.11-5.54,5.44,5.44,0,0,1,2-2.45,6.18,6.18,0,0,1,3-1A10.77,10.77,0,0,1,137,87.61a15.65,15.65,0,0,1,4.3,3.27c-1.78-.41-3.41-1-5-1.38a15,15,0,0,0-4.62-.65,4.25,4.25,0,0,0-3.42,1.85A13.87,13.87,0,0,0,126.38,95.27Z" transform="translate(-15.64 -21.78)"/></svg>