<svg id="Layer_1" data-name="Layer 1" xmlns="http://www.w3.org/2000/svg" viewBox="0 0 187.12 458.19"><defs><style>.cls-1{fill:#f5f5f5;}.cls-2{fill:#fcb465;}.cls-3{fill:#965a29;}.cls-4{fill:#ffc9c9;}.cls-5{fill:#8c6338;}.cls-6{fill:#73512e;}</style></defs><path class="cls-1" d="M23.79,171.92A64.74,64.74,0,0,1,45.5,217c4.59,79.5-9.81,172.26-20.06,262.12H175.09c-10.18-88.42-24.31-177.87-19.62-262.44a65.65,65.65,0,0,1,21.43-45.23,55.23,55.23,0,0,0,11.42-14.91c6-11,5.76-27.24-.44-38.7-5.1-9.42-13.87-15.29-24.07-16.12-.84-.07-1.69-.11-2.53-.11s-1.79,0-2.66.13a45,45,0,0,0-8.07-20.42c-6.31-8.53-15.22-13.23-25.07-13.23-.73,0-1.48,0-2.21.08a31.32,31.32,0,0,0-23.18,13.18A31.3,31.3,0,0,0,76.91,68.2c-.73,0-1.48-.08-2.21-.08-9.85,0-18.75,4.7-25.07,13.23a45.07,45.07,0,0,0-8.07,20.42c-.87-.08-1.75-.13-2.65-.13s-1.7,0-2.54.11c-10.2.83-19,6.7-24.07,16.12-6.2,11.46-6.39,27.73-.44,38.7A54.61,54.61,0,0,0,23.79,171.92Z" transform="translate(-6.53 -20.96)"/><path class="cls-2" d="M25.44,479.15H175.09c-10-87-23.83-174.93-19.81-258.28-2.72,8.21-7.77,20.47-14.07,23.1-4.94,2.06-11.7-1.18-16.36-.49-6,.88-8.78,5.94-15.65,6.59-10,1-11.86-3.94-19.49-7.65-7.79-3.79-11.87-1.53-19.32.3C61.29,245,58,243,54.22,235.51c-3.81-7.62-4.91-18.89-9.39-24.8.32,2.09.55,4.2.67,6.32C50.09,296.53,35.68,389.29,25.44,479.15Z" transform="translate(-6.53 -20.96)"/><path class="cls-3" d="M168,430.21a32.88,32.88,0,0,0-17.69,4,47.65,47.65,0,0,0-4.42,2.93,31.3,31.3,0,0,1-4.85,3c-4.41,2-7.22,1.25-10.74-.91a20.78,20.78,0,0,0-16.3-2.95,57.51,57.51,0,0,0-9.78,2.78,27.69,27.69,0,0,0-3.47,1.79,15,15,0,0,1-5.08,2.1c-3.63.51-6.76-1.4-10-3.51-2.43-1.58-4.9-3.24-7.67-3.92-5-1.21-9.74-.12-14.44.8-1.77.34-3.61.68-5.41.84a14.4,14.4,0,0,1-10.53-2.95l-.69-.5a21.68,21.68,0,0,0-5.57-3.24,14.19,14.19,0,0,0-10.09.46,5.68,5.68,0,0,1-1.35,1.79l-1.38,11.44a8.64,8.64,0,0,1,1.25.25,1.37,1.37,0,0,1,.88-1c2.56-.87,9.48,2.83,14.64,5.3a32.83,32.83,0,0,0,6.57,2.7,15.06,15.06,0,0,0,5.64-.51l1.11-.25c3.69-.79,7.67-1.39,12.22-.09a56.1,56.1,0,0,1,7.07,2.77c3.19,1.39,6.51,2.77,10.23,2.95.5,0,1,0,1.5,0a38.64,38.64,0,0,0,10.93-2.53c2.41-.84,4.88-1.74,7.38-2.37a30.88,30.88,0,0,1,12.84-.71,28.77,28.77,0,0,1,5.82,2,29.86,29.86,0,0,0,4.72,1.64c6.51,1.5,12.73-1.56,18.57-4.71,6.78-3.65,12.95-7.32,20.12-5.44a10.86,10.86,0,0,1,1.78-.85l-1.29-10.55c-.08-.6-.15-1.21-.23-1.82a5.27,5.27,0,0,1-2.32-.94A.5.5,0,0,0,168,430.21Z" transform="translate(-6.53 -20.96)"/><path class="cls-3" d="M144.26,273.13A21.76,21.76,0,0,0,138,276a29.33,29.33,0,0,0-2.67,2.07,16.71,16.71,0,0,1-4,2.72c-3.6,1.49-7-.09-10.53-1.85-2.92-1.46-5.89-3-9.1-2.91-4,.14-7.46,2.23-10.83,4.17-4.43,2.57-8.78,4.89-14.14,2.2-.81-.41-1.6-.85-2.37-1.28-2.91-1.65-5.64-3.25-9.11-3.53-4.41-.36-8.25.93-11.81,2.33-2.88,1.12-5,1.76-7.85.83a25.45,25.45,0,0,1-5.71-3l-.15-.1c-1.58-1-3.18-2.1-4.83-3q-.18,5-.42,10c.33,0,.65,0,1,0,3,.29,5,2,7.24,3.77.64.5,1.29,1,2,1.52a11.58,11.58,0,0,0,11.66,1.4A23.44,23.44,0,0,0,69,289.88a20,20,0,0,1,3.32-1.8c3.51-1.38,7.27-.89,11.05,1.39l1.57,1c2.27,1.41,4.36,2.67,6.79,2.76a8.55,8.55,0,0,0,3.88-.84c1-.47,2-1,2.86-1.53a19.76,19.76,0,0,1,5.86-2.62c3.75-.82,7.09-.2,11,2,4.36,2.49,8.58,4.74,14.14,2.5a36.39,36.39,0,0,0,5.66-3.12c4.32-2.74,8.64-5.68,13.52-4.54a22.24,22.24,0,0,1,3.87,1.44,16.55,16.55,0,0,0,3.93,1.33q-.33-7.17-.54-14.31c-1.05-.06-2.09-.2-3.1-.35C150.08,272.78,147.33,272.31,144.26,273.13Z" transform="translate(-6.53 -20.96)"/><path class="cls-3" d="M157.68,326a32.84,32.84,0,0,1-5,3.32l-2.05,1.18c-1.06.63-2.08,1.35-3.07,2a24.33,24.33,0,0,1-4.66,2.74c-4.69,1.9-8.56.11-12.55-1.88-1.32-.66-2.68-1.36-4-1.92-6.63-2.73-12.17.32-17.78,3.08-4.18,2.06-8.61,4.07-13.23,3.29a26.08,26.08,0,0,1-6.63-2.38c-2.84-1.33-5.7-2.76-9.14-3-5.41-.38-9.29,1.41-13.9,3.36l-.2.08c-3.83,1.6-6.06,1.29-9.35-1.23-.71-.54-1.39-1.15-2.05-1.74a27.92,27.92,0,0,0-3.73-3,11.22,11.22,0,0,0-8.83-1.85q-.52,6-1.09,12.06a23,23,0,0,1,4.44.35,22.53,22.53,0,0,1,7.91,3.39c4.28,2.68,9,5.23,14.65,5.23a29.19,29.19,0,0,0,7.82-1.36,37.45,37.45,0,0,1,7.86-1.63,25.78,25.78,0,0,1,9.39,1.3c.7.23,1.41.5,2.1.75a18.39,18.39,0,0,0,4.5,1.24,8.1,8.1,0,0,0,1.1.05,18.43,18.43,0,0,0,7-1.89,33.8,33.8,0,0,1,4.55-1.7c7.24-1.87,14.18-.12,20.3,1.45A16,16,0,0,0,143.71,346l1.18-.57c5.06-2.48,9.77-5,15.11-6.75q-.58-6.5-1.11-13c-.13,0-.26.09-.4.12Z" transform="translate(-6.53 -20.96)"/><path class="cls-3" d="M149.69,379.45a94.83,94.83,0,0,0-9.76,4.45A68.72,68.72,0,0,1,132.8,387c-4.49,1.58-8.08.49-11.8-.75a40.33,40.33,0,0,0-6.58-1.82c-5.47-.86-11.44.54-15.57,1.79-1.14.35-2.29.8-3.4,1.23a23,23,0,0,1-5.37,1.57c-3.73.45-7-1.46-10-3.38l-.7-.43a30.38,30.38,0,0,0-15.23-5,26.32,26.32,0,0,0-13,2.64c-2.12,1-3.83,1.79-6.19.43a21.27,21.27,0,0,1-2.73-1.95c-.46-.36-.92-.73-1.38-1.07a23.4,23.4,0,0,0-3.91-2.48.38.38,0,0,0,0-.1l-.37-.06Q35.77,384,35,390.37c0,.13.06.25.08.37,0-.39.11-.78.17-1.17,1.5.63,2.8,1.26,4.07,1.87a28.78,28.78,0,0,0,5.35,2.12,13.28,13.28,0,0,0,5.53.26c1.29-.21,2.55-.47,3.76-.74,4.78-1.06,9.2-2.21,14.55-.38A65,65,0,0,1,75.92,396a42,42,0,0,0,7.6,3.08c5.21,1.41,10.31.53,15-.72l1.59-.44c5.54-1.57,10.67-3.23,16.51-2.21,1.84.32,3.68.77,5.47,1.19a34.25,34.25,0,0,0,9.26,1.23c3.75-.14,6.82-1.64,10-3.29,1.17-.6,2.38-1.23,3.61-1.8,7.1-3.32,12.78-2.39,20.31-1.07a1.53,1.53,0,0,0,.3,0c0,.28.05.57.07.85l.08,0q-.87-7.49-1.71-15h-.9C158.65,377.86,154.49,377.71,149.69,379.45Z" transform="translate(-6.53 -20.96)"/><path class="cls-4" d="M120.06,124.81c-.24,0-.49-.09-.73-.15-6.41-1.61-9.44-11.41-8.14-19.19,1.54-9.19,7-18.78,15.42-18.13.24,0,.48,0,.71.08,4,.61,6.39,3.64,7.68,6.07,2.82,5.31,3.32,13.37,1.12,18C132.73,118.55,126.25,125.75,120.06,124.81Z" transform="translate(-6.53 -20.96)"/><path class="cls-5" d="M127.17,88.41h0c3.6.54,5.77,3.32,7,5.55,3,5.68,2.91,13.28,1.1,17.07-3.24,6.76-9.32,13.65-15,12.79a4.7,4.7,0,0,1-.63-.13c-3.59-.9-5.47-4.55-6.28-6.64a22.76,22.76,0,0,1-1.12-11.41,29.26,29.26,0,0,1,4.89-12.21c2.7-3.66,5.88-5.37,9.47-5.09.21,0,.42,0,.63.07m.3-2q-.39-.06-.78-.09c-9.45-.73-15,10.13-16.48,19-1.33,8,1.64,18.5,8.88,20.32a7.45,7.45,0,0,0,.82.17c7,1,13.65-6.68,17.11-13.91s.89-23.88-9.55-25.46Z" transform="translate(-6.53 -20.96)"/><path class="cls-4" d="M99.21,201.72c-14.14,0-24.11-3.91-29.63-11.61s-5.09-17.64-3-23.76c3.65-10.76,20-30.63,33.58-30.63,6,0,13.33,4.13,20.64,11.65,5.83,6,11.16,13.8,12.94,19,2.15,6.22,2.55,15.57-2.78,23.13-5.51,7.83-16.16,12.06-30.81,12.24Z" transform="translate(-6.53 -20.96)"/><path class="cls-5" d="M100.14,136.72c12.66,0,29.19,20,32.64,30,2.06,6,2.45,15-2.65,22.22-5.32,7.56-15.7,11.64-30,11.82h-.91c-13.8,0-23.5-3.76-28.82-11.19s-4.88-17-2.88-22.86c3.48-10.25,19.65-29.95,32.63-29.95m0-2c-14.32,0-30.88,20.55-34.52,31.31-4.21,12.4-1.51,36.69,33.59,36.69h.93c36-.44,38.84-24.2,34.53-36.69-3.41-9.88-20.21-31.31-34.53-31.31Z" transform="translate(-6.53 -20.96)"/><path class="cls-4" d="M154.29,158.08a7.48,7.48,0,0,1-1.89-.24c-6.31-1.63-8.76-11.36-7-19.08,2-8.71,7.74-18.08,15.73-18.08a8.44,8.44,0,0,1,.87,0,9.56,9.56,0,0,1,7.65,5.39c3.15,5.81,2.76,14.31.43,18.61C166.47,151.37,160.19,158.08,154.29,158.08Z" transform="translate(-6.53 -20.96)"/><path class="cls-5" d="M161.13,119.68v2c.26,0,.53,0,.79,0,2.92.24,5.23,1.88,6.85,4.88,3,5.52,2.64,13.59.43,17.66-4.81,8.86-10.95,12.83-14.91,12.83a6.88,6.88,0,0,1-1.64-.2c-3.49-.91-5.15-4.5-5.82-6.55a22.33,22.33,0,0,1-.46-11.35,31.34,31.34,0,0,1,5.37-11.83c1.93-2.5,5.12-5.47,9.39-5.47v-2m0,0c-8.91,0-14.78,10.36-16.71,18.86-1.79,7.91.57,18.42,7.73,20.27a8.21,8.21,0,0,0,2.14.27c6.49,0,13-7.15,16.67-13.88,4-7.46,2.2-24.58-8.88-25.48-.32,0-.64,0-1,0Z" transform="translate(-6.53 -20.96)"/><path class="cls-4" d="M78.83,125.05c-6.24.51-12.2-7.12-15.1-14.42-1.88-4.74-.82-12.74,2.35-17.85,1.45-2.34,4-5.2,8.08-5.53.24,0,.47,0,.71,0,8.44-.07,13.24,9.88,14.14,19.16.76,7.85-2.93,17.41-9.45,18.58-.24,0-.48.07-.73.09Z" transform="translate(-6.53 -20.96)"/><path class="cls-5" d="M74.25,88.25q.31,0,.63,0c3.6,0,6.66,1.9,9.1,5.73a29.38,29.38,0,0,1,4,12.52,22.85,22.85,0,0,1-1.9,11.31c-1,2-3.08,5.54-6.72,6.19-.21,0-.43.07-.64.09-5.74.47-11.33-6.83-14.09-13.8-1.55-3.9-1.12-11.5,2.27-17,1.33-2.15,3.68-4.76,7.32-5.06m-.17-2C63.56,87.11,59.8,103.44,62.8,111s9.11,15.62,16.11,15a7.86,7.86,0,0,0,.83-.11c7.35-1.32,11-11.64,10.26-19.66-.86-8.92-5.66-20.14-15.13-20.06-.27,0-.53,0-.79,0Z" transform="translate(-6.53 -20.96)"/><path class="cls-4" d="M45.9,158.08c-5.91,0-12.19-6.71-15.8-13.36-2.33-4.3-2.72-12.8.43-18.6a9.55,9.55,0,0,1,7.65-5.4,8.57,8.57,0,0,1,.87,0c8,0,13.76,9.37,15.73,18.08,1.76,7.72-.69,17.45-7,19.08a7.4,7.4,0,0,1-1.88.24Z" transform="translate(-6.53 -20.96)"/><path class="cls-5" d="M39.05,121.68c4.27,0,7.46,3,9.39,5.47A31.34,31.34,0,0,1,53.81,139a22.33,22.33,0,0,1-.46,11.35c-.67,2-2.33,5.64-5.82,6.55a6.86,6.86,0,0,1-1.63.2c-4,0-10.11-4-14.92-12.83-2.21-4.07-2.56-12.14.43-17.66,1.62-3,3.93-4.64,6.85-4.88l.79,0m0-2c-.31,0-.63,0-.95,0-11.08.9-12.93,18-8.88,25.48,3.65,6.73,10.18,13.88,16.68,13.88a8.19,8.19,0,0,0,2.13-.27c7.16-1.85,9.53-12.36,7.73-20.27-1.93-8.5-7.8-18.86-16.71-18.86Z" transform="translate(-6.53 -20.96)"/><path class="cls-5" d="M77.09,213.5a3.15,3.15,0,0,0,1.2.89c.45.24.9.47,1.37.67.92.42,1.86.81,2.81,1.15A58.43,58.43,0,0,0,88.25,218a53.11,53.11,0,0,0,11.87,1.63A42.7,42.7,0,0,0,112,218.24a44.67,44.67,0,0,0,11.12-4.74,31,31,0,0,1-10.67,6.23,35.9,35.9,0,0,1-12.34,1.89,42.5,42.5,0,0,1-12.27-2.14,39.9,39.9,0,0,1-5.74-2.38c-.91-.48-1.82-1-2.68-1.55-.43-.29-.86-.59-1.26-.91A3.15,3.15,0,0,1,77.09,213.5Z" transform="translate(-6.53 -20.96)"/><path class="cls-5" d="M23.13,172.68A64,64,0,0,1,44.5,217.09c3.76,65.13-5.4,140.46-14.27,213.31-2,16.12-3.94,32.44-5.8,48.75h2c1.85-16.23,3.83-32.47,5.78-48.5C41.09,357.7,50.27,282.28,46.5,217a66,66,0,0,0-22-45.8,53.8,53.8,0,0,1-11.71-15.08c-5.8-10.69-5.61-26.56.44-37.75,4.94-9.11,13.42-14.8,23.27-15.6.82-.06,1.65-.1,2.46-.1s1.6,0,2.57.12a1,1,0,0,0,1.07-.86,44,44,0,0,1,7.89-20c6.12-8.27,14.74-12.82,24.26-12.82.71,0,1.43,0,2.14.08A30.49,30.49,0,0,1,99.29,82a1,1,0,0,0,1.61,0A30.47,30.47,0,0,1,123.34,69.2c10.35-.76,19.83,3.86,26.41,12.74a43.82,43.82,0,0,1,7.88,20,1,1,0,0,0,1.07.86,29.2,29.2,0,0,1,5,0c9.86.8,18.34,6.49,23.27,15.6,6.05,11.19,6.24,27.06.44,37.75a54.57,54.57,0,0,1-11.21,14.65,66.18,66.18,0,0,0-21.76,45.91c-3.88,70,5.25,144.43,14.08,216.44,1.87,15.21,3.75,30.61,5.53,46.06h2c-1.78-15.53-3.68-31-5.55-46.3-8.82-71.93-17.94-146.31-14.07-216.09a64.24,64.24,0,0,1,21.09-44.54A56.4,56.4,0,0,0,189.2,157c6.1-11.24,5.91-27.91-.44-39.65-5.26-9.72-14.33-15.78-24.86-16.64a29.54,29.54,0,0,0-4.43,0,45.81,45.81,0,0,0-8.11-20c-7-9.44-17.13-14.35-28.17-13.55a32.3,32.3,0,0,0-23.1,12.53A32.3,32.3,0,0,0,77,67.2c-.76,0-1.53-.08-2.29-.08-10.17,0-19.36,4.84-25.87,13.63a45.7,45.7,0,0,0-8.12,20,29.39,29.39,0,0,0-4.42,0c-10.54.86-19.6,6.92-24.87,16.64C5.07,129.13,4.88,145.8,11,157A56.15,56.15,0,0,0,23.13,172.68Z" transform="translate(-6.53 -20.96)"/><path class="cls-6" d="M47.59,43.28a6.2,6.2,0,0,1,.07-1c0-.33.07-.66.08-1l-.06-17.22a3.06,3.06,0,0,1-.16-.58,4.53,4.53,0,0,1-.06-.71,1.8,1.8,0,0,1,.1-.6,1.57,1.57,0,0,1,.31-.53,1.45,1.45,0,0,1,.5-.37,1.52,1.52,0,0,1,.69-.14q.66,0,1.32.06a12.19,12.19,0,0,0,1.37.07,8.88,8.88,0,0,0,1.15-.07,11.73,11.73,0,0,1,1.22-.06,12.85,12.85,0,0,1,3.94.58,9.17,9.17,0,0,1,3.16,1.71,8,8,0,0,1,2.09,2.78A8.83,8.83,0,0,1,64.08,30a10.85,10.85,0,0,1-.51,3.5A8,8,0,0,1,62.18,36a7.42,7.42,0,0,1-2,1.74,10.93,10.93,0,0,1-2.53,1.07,16.05,16.05,0,0,1-2.81.54,27.73,27.73,0,0,1-2.87.15h-.87v.83c0,.21,0,.37,0,.5s0,.24,0,.33v.32a5.2,5.2,0,0,0,.09,1,4.68,4.68,0,0,1,.1,1,1.27,1.27,0,0,1-.18.69,1.45,1.45,0,0,1-.45.44,2,2,0,0,1-.58.26,2.6,2.6,0,0,1-.59.08,2.38,2.38,0,0,1-.7-.11,1.93,1.93,0,0,1-.6-.33,1.72,1.72,0,0,1-.41-.52A1.53,1.53,0,0,1,47.59,43.28Zm3.48-7,.62,0,.6,0,.51,0h.35A13.23,13.23,0,0,0,56,36.11a7.38,7.38,0,0,0,2-.73,4.6,4.6,0,0,0,1.34-1.09A4.86,4.86,0,0,0,60.15,33a6.48,6.48,0,0,0,.36-1.52,13.6,13.6,0,0,0,.09-1.56,5.8,5.8,0,0,0-.35-2.15,4.68,4.68,0,0,0-.92-1.52,4.73,4.73,0,0,0-1.29-1,7.14,7.14,0,0,0-1.49-.57,7.87,7.87,0,0,0-1.47-.27,12.21,12.21,0,0,0-1.26-.07l-1.38,0-1.49,0c0,1.31,0,2.46,0,3.45s0,1.87,0,2.64,0,1.43,0,2,0,1.08,0,1.53,0,.86,0,1.23S51.07,35.93,51.07,36.29Z" transform="translate(-6.53 -20.96)"/><path class="cls-6" d="M66.16,43.37a3.52,3.52,0,0,1,.13-1,3,3,0,0,1,.5-1q.25-.43.69-1.32c.3-.59.63-1.28,1-2.08s.76-1.67,1.19-2.61L71,32.53c.44-1,.88-2,1.31-3s.85-1.91,1.24-2.77l1.06-2.35c.32-.69.59-1.26.81-1.69a2.63,2.63,0,0,1,.18-.65,2.17,2.17,0,0,1,.36-.58,1.58,1.58,0,0,1,.54-.42,1.54,1.54,0,0,1,.73-.16,2.21,2.21,0,0,1,.88.15,1.53,1.53,0,0,1,.55.41,2.16,2.16,0,0,1,.35.61c.09.23.18.47.27.73l.23.65a3.17,3.17,0,0,0,.19.48c.67,1.33,1.32,2.68,2,4s1.26,2.74,1.88,4.14,1.26,2.82,1.9,4.26,1.3,2.9,2,4.38l.28.42.29.4a3.48,3.48,0,0,1,.3.5,2.87,2.87,0,0,1,.24.57,1.8,1.8,0,0,1,.1.6,1.5,1.5,0,0,1-.51,1.28,2,2,0,0,1-1.24.38,2,2,0,0,1-.74-.13,1.9,1.9,0,0,1-.59-.34,1.68,1.68,0,0,1-.41-.51,1.87,1.87,0,0,1-.19-.62c-.28-.61-.54-1.18-.78-1.72s-.47-1-.7-1.54l-.65-1.46-.63-1.43h-.67l-1,0H78.79l-1.79,0H75.11l-2,.06-.31,0h-.31l-.8,1.93c-.25.62-.47,1.18-.67,1.7s-.38,1-.53,1.39-.27.73-.36,1v0a4.88,4.88,0,0,1-.2.65,1.74,1.74,0,0,1-.32.56,1.5,1.5,0,0,1-.58.4A2.34,2.34,0,0,1,68,45a2.13,2.13,0,0,1-1.34-.4A1.39,1.39,0,0,1,66.16,43.37Zm7.65-9.43H77.9l2.83,0-1.56-3.38q-.87-1.87-2-4.38c-.23.51-.48,1.07-.74,1.68l-.81,1.9q-.43,1-.87,2C74.4,32.54,74.11,33.24,73.81,33.94Z" transform="translate(-6.53 -20.96)"/><path class="cls-6" d="M92.21,43.28a6.2,6.2,0,0,1,.07-1c0-.33.07-.66.08-1L92.3,24.09a3.06,3.06,0,0,1-.16-.58,4.6,4.6,0,0,1-.07-.71,1.81,1.81,0,0,1,.11-.6,1.57,1.57,0,0,1,.31-.53,1.45,1.45,0,0,1,.5-.37,1.52,1.52,0,0,1,.69-.14c.44,0,.87,0,1.31.06a12.25,12.25,0,0,0,1.38.07,9,9,0,0,0,1.15-.07,11.73,11.73,0,0,1,1.22-.06,12.79,12.79,0,0,1,3.93.58,9.17,9.17,0,0,1,3.16,1.71,8.06,8.06,0,0,1,2.1,2.78,8.83,8.83,0,0,1,.76,3.76,10.85,10.85,0,0,1-.51,3.5A8.19,8.19,0,0,1,106.8,36a7.56,7.56,0,0,1-2,1.74,11.12,11.12,0,0,1-2.53,1.07,16.23,16.23,0,0,1-2.81.54,28,28,0,0,1-2.87.15h-.87v1.33c0,.13,0,.24,0,.33v.32a4.47,4.47,0,0,0,.1,1,5.4,5.4,0,0,1,.1,1,1.27,1.27,0,0,1-.18.69,1.45,1.45,0,0,1-.45.44,2.08,2.08,0,0,1-.59.26,2.52,2.52,0,0,1-.58.08,2.38,2.38,0,0,1-.7-.11,1.93,1.93,0,0,1-.6-.33,1.72,1.72,0,0,1-.41-.52A1.53,1.53,0,0,1,92.21,43.28Zm3.47-7,.62,0,.61,0,.51,0h.34a13.26,13.26,0,0,0,2.87-.27,7.5,7.5,0,0,0,2-.73A4.55,4.55,0,0,0,104,34.29a4.65,4.65,0,0,0,.78-1.34,6.48,6.48,0,0,0,.36-1.52,13.6,13.6,0,0,0,.09-1.56,6,6,0,0,0-.35-2.15A4.86,4.86,0,0,0,104,26.2a4.63,4.63,0,0,0-1.3-1,7.06,7.06,0,0,0-1.48-.57,8,8,0,0,0-1.48-.27,11.89,11.89,0,0,0-1.25-.07l-1.39,0-1.49,0c0,1.31,0,2.46,0,3.45s0,1.87,0,2.64,0,1.43,0,2,0,1.08,0,1.53,0,.86,0,1.23S95.68,35.93,95.68,36.29Z" transform="translate(-6.53 -20.96)"/><path class="cls-6" d="M113.21,42.84a2.67,2.67,0,0,1,.07-.54c0-.19.09-.37.14-.53l.14-.48-.35-17.9a2.89,2.89,0,0,1,.18-1.14,1.34,1.34,0,0,1,.44-.6,1.22,1.22,0,0,1,.62-.22,5.54,5.54,0,0,1,.71,0h7.89l.61-.09.47,0a3.25,3.25,0,0,1,.92.11,1.21,1.21,0,0,1,.55.3,1,1,0,0,1,.27.5,3,3,0,0,1,.07.71,2.52,2.52,0,0,1-.14.91,1.29,1.29,0,0,1-.39.53,1.32,1.32,0,0,1-.58.25,3.88,3.88,0,0,1-.7.06h-.44c-.18,0-.36,0-.56,0h-6.46v4.75h7.79l.42-.05.63-.06c.24,0,.5,0,.77,0a1.53,1.53,0,0,1,.72.17,1.67,1.67,0,0,1,.53.41,1.57,1.57,0,0,1,.33.53,1.39,1.39,0,0,1,.12.54,1.33,1.33,0,0,1-.54,1.18,2.3,2.3,0,0,1-1.36.37l-9.41,0v9c1,0,2,0,3,0s2,.05,3.13.05a6.68,6.68,0,0,0,.82-.05l.72-.1.64-.08a5.14,5.14,0,0,1,.71,0,4.28,4.28,0,0,1,.83.07,1.89,1.89,0,0,1,.67.23,1.27,1.27,0,0,1,.45.47,1.48,1.48,0,0,1,.16.74,1.93,1.93,0,0,1-.22,1,1.31,1.31,0,0,1-.61.53,2.78,2.78,0,0,1-.87.21c-.32,0-.66,0-1,0H115a2.73,2.73,0,0,1-.72-.09,1.57,1.57,0,0,1-.56-.29,1.37,1.37,0,0,1-.37-.53A2,2,0,0,1,113.21,42.84Z" transform="translate(-6.53 -20.96)"/><path class="cls-6" d="M133.1,42.86c0-.21,0-.43,0-.64s0-.4.06-.58v-15c0-.8,0-1.62,0-2.46a3.29,3.29,0,0,1-.14-.58,3.63,3.63,0,0,1-.07-.71,2,2,0,0,1,.1-.63,1.52,1.52,0,0,1,.3-.56,1.38,1.38,0,0,1,.5-.39,1.52,1.52,0,0,1,.69-.15,10.93,10.93,0,0,1,1.27.07,12.53,12.53,0,0,0,1.45.08c.45,0,.9,0,1.35-.07s.93-.07,1.44-.08a17.68,17.68,0,0,1,4.09.44,8.73,8.73,0,0,1,3.13,1.4,6.3,6.3,0,0,1,2,2.4,7.91,7.91,0,0,1,.71,3.48,10,10,0,0,1-.54,3.41,9.34,9.34,0,0,1-1.36,2.59,8.36,8.36,0,0,1-1.86,1.85,9.25,9.25,0,0,1-2,1.13,7.23,7.23,0,0,0,.42,1.52,4.83,4.83,0,0,0,.75,1.25,3.53,3.53,0,0,0,1.07.86,3,3,0,0,0,1.38.31,2.87,2.87,0,0,0,1-.18,1.74,1.74,0,0,0,.82-.7,2.28,2.28,0,0,1,.5-.53,1.2,1.2,0,0,1,.77-.23,1.7,1.7,0,0,1,1.26.44,1.54,1.54,0,0,1,.45,1.14,2.32,2.32,0,0,1-.37,1.23,3.6,3.6,0,0,1-1,1,6.11,6.11,0,0,1-1.61.7,8,8,0,0,1-2.1.26,5.52,5.52,0,0,1-1.92-.31,5.47,5.47,0,0,1-1.55-.82,6.7,6.7,0,0,1-1.2-1.18,9.14,9.14,0,0,1-.9-1.39,10.44,10.44,0,0,1-.61-1.45,12.81,12.81,0,0,1-.38-1.35h-2.21l-1.07,0h-1.16V40.6a8.7,8.7,0,0,0,.17,1.37,6.25,6.25,0,0,1,.15,1.37,1.42,1.42,0,0,1-.17.74,1.62,1.62,0,0,1-.44.5,1.86,1.86,0,0,1-.58.29,2.18,2.18,0,0,1-.6.09,2,2,0,0,1-.83-.16,2,2,0,0,1-.64-.43,2.15,2.15,0,0,1-.43-.66A2.3,2.3,0,0,1,133.1,42.86Zm3.5-7.66.91,0,1,0,.85,0h.48a8.71,8.71,0,0,0,3.32-.55,5,5,0,0,0,2-1.47,5.13,5.13,0,0,0,1-2.1,10.27,10.27,0,0,0,.28-2.42,4.43,4.43,0,0,0-.34-1.85,3.57,3.57,0,0,0-.92-1.25,4.4,4.4,0,0,0-1.28-.78,7.8,7.8,0,0,0-1.46-.42,12.58,12.58,0,0,0-1.46-.17l-1.25,0-1.55,0c-.52,0-1.09,0-1.69,0,0,.38,0,.73,0,1s0,.61,0,.9v3.82c0,.59,0,1.15,0,1.71l0,1.67C136.55,34,136.57,34.59,136.6,35.2Zm7,2.87s0,0,0,0Z" transform="translate(-6.53 -20.96)"/></svg>