<svg id="Layer_1" data-name="Layer 1" xmlns="http://www.w3.org/2000/svg" viewBox="0 0 2000 2000"><defs><style>.cls-1{fill:#ffc600;}.cls-2{fill:none;}</style></defs><path class="cls-1" d="M552.44,1368.24a63.94,63.94,0,0,1-52.6-27.46A601.39,601.39,0,0,1,992.52,396.11c12.28,0,24.71.31,36.92,1a64,64,0,0,1-3.65,127.9c-1.26,0-2.51,0-3.78-.11-9.65-.56-19.45-.84-29.17-.81-261.12.64-473,213.6-472.39,474.72a470.68,470.68,0,0,0,84.48,268.86,64,64,0,0,1-52.49,100.55Z"/><path class="cls-1" d="M939.09,743.74a64,64,0,0,1-45.36-109.15l166.2-167-167-166.2a64,64,0,0,1,90.29-90.74L1195.58,422a64,64,0,0,1,.22,90.51L984.46,724.88A63.81,63.81,0,0,1,939.09,743.74Z"/><path class="cls-1" d="M1006,1603.89c-11.8,0-23.71-.34-35.43-1A64,64,0,0,1,978,1475.08c9.64.56,19.43.85,29.17.81,126.49-.31,245.29-49.86,334.51-139.53s138.19-208.7,137.88-335.19a470.68,470.68,0,0,0-84.48-268.86,64,64,0,0,1,105.09-73.09,601.39,601.39,0,0,1-492.68,944.67Z"/><path class="cls-1" d="M1062,1808a63.81,63.81,0,0,1-45.14-18.63L804.42,1578a64,64,0,0,1-.22-90.51l211.34-212.39a64,64,0,0,1,90.73,90.29l-166.2,167,167,166.2A64,64,0,0,1,1062,1808Z"/><rect class="cls-2" width="2000" height="2000"/></svg>