<?xml version="1.0" encoding="utf-8"?>
<!-- Generator: Adobe Illustrator 25.3.1, SVG Export Plug-In . SVG Version: 6.00 Build 0)  -->
<svg version="1.1" id="Layer_1" xmlns="http://www.w3.org/2000/svg" xmlns:xlink="http://www.w3.org/1999/xlink" x="0px" y="0px"
	 viewBox="0 0 160.6 458.2" style="enable-background:new 0 0 160.6 458.2;" xml:space="preserve">
<style type="text/css">
	.st0{fill:#F5F5F5;}
	.st1{fill:#FCB465;}
	.st2{fill:#965A29;}
	.st3{fill:#8C6338;}
	.st4{fill:#73512E;}
</style>
<path class="st0" d="M151.3,402.4c-3.4-75.2-17.3-148.5-6.1-182.3c3.6-14.8-31-14-65.6-14.3c-34.6,1-69.1,1-64.3,14.5
	c17.3,36.3,3.4,107.4-3,181c-1.9,19-3.2,38.2-3.7,56.9h143.8C152.8,440,152.4,421.1,151.3,402.4z"/>
<path class="st1" d="M8.6,458.2h143.8c0.4-18.2,0-37.1-1-55.8c-2.5-55.9-10.9-110.8-10.4-149.1c-1.5-1-2.9-1.9-3.3-1.6
	c-1,0.7,2.6,8.4,1.5,9s-6.2-6-7.4-5.4s1.5,8.6,0.3,9.1s-5.5-6.7-6.7-6.2s0.6,8.7-0.6,9.1s-4.9-7.1-6.1-6.8s-0.1,8.7-1.3,9
	s-4.4-7.5-5.6-7.2s-0.7,8.7-1.9,8.9s-3.9-7.7-5.2-7.5c-1.2,0.2-1.2,8.6-2.4,8.8c-1.2,0.2-3.5-7.9-4.8-7.8s-1.6,8.6-2.9,8.7
	c-1.2,0.1-3.2-8.1-4.4-8c-1.2,0.1-2,8.5-3.2,8.5s-2.8-8.2-4.1-8.2s-2.4,8.4-3.6,8.4s-2.5-8.3-3.7-8.3c-1.2,0-2.7,8.3-3.9,8.2
	s-2.1-8.4-3.4-8.5c-1.2-0.1-3,8.2-4.3,8.1c-1.3-0.1-1.8-8.5-3-8.6s-3.4,8-4.6,7.9s-1.4-8.6-2.7-8.7s-3.8,7.9-5,7.7s-1-8.6-2.2-8.9
	s-4.1,7.7-5.3,7.4s-0.5-8.7-1.7-9s-4.7,7.4-5.8,7s0.1-8.7-1-9.1s-5.4,6.9-6.5,6.4s1.2-8.6,0.2-9.1c-0.5-0.2-1.7,0.7-3,1.8
	c2,38.3-6.5,89.8-11,142.7C10.4,420.3,9.1,439.5,8.6,458.2z"/>
<path class="st2" d="M122.7,307.2c-3.4,0.5-6.3,2.1-9,3.7c-2.4,1.6-5.1,2.8-7.9,3.5l-0.7,0.2c-3.1,0.5-6.1,1.4-9,2.8
	c-1.3,0.7-2.6,1.4-3.8,2.2c-2.1,1.4-4.4,2.6-6.8,3.5c-2.4,0.7-4.8,1.2-7.3,1.5c-4.5,0.6-8.8,1.3-12.7,4.6c-0.4,0.4-0.5,0.9-0.3,1.4
	c0.2,0.5,0.7,0.9,1.2,0.9c8-0.4,14.3-0.5,21.4,1.3c5.5,1.4,10.9,2.5,17.3,1c4.1-1,7.4-1.5,11-0.9c1.5,0.2,3,0.6,4.4,1
	c1.6,0.4,3.3,0.8,4.9,1c2.6,0.3,5.2,0.2,7.8,0c3.4-0.2,11.2-0.6,13-1c-1-10.7-2-21-2.8-31h-0.3c-0.4,0-0.2-0.6,0.2-1v0
	c-3,3.2-10.9,5.1-15.7,5.1C126,306.9,124.4,307,122.7,307.2z"/>
<path class="st2" d="M148.5,377.9c-0.4,0-7,1.4-10.3,1.2c-1.6-0.2-3.2-0.2-4.8,0c-3.9,0.6-7.7,1.6-11.4,3.1
	c-2.4,0.9-4.8,1.7-7.2,2.4c-4.6,1.1-9.3,1.9-13.8,2.7c-8.4,1.4-17,2.9-25,6.6c-0.5,0.2-0.9,0.8-0.8,1.4c0.1,0.6,0.5,1.2,1.2,1.3
	c2.4,0.5,4.9,0.7,7.4,0.6c0.9,0,1.8,0,2.8,0.1c2.3,0.2,4.6,0.6,6.8,1.2l2.1,0.5c3.5,0.7,7,1,10.5,0.9c3.5-0.1,6.9,0.2,10.4,0.9
	c2.3,0.6,4.6,1.3,6.9,2.2c2.9,1.1,5.9,2,9,2.6c2,0.3,4.1,0.4,6.1,0.3c3.8,0,7.7,0,10.8,1.9c0.2,0.1,0.5,0.2,0.8,0.3v0.3l0.2-0.1
	l0.4-0.3c0.3-0.4,0.4-4.6,0.4-9.2c-0.4-7.5-0.8-14.9-1.4-22.2C149.3,376.9,148.9,377.4,148.5,377.9z"/>
<path class="st2" d="M144.6,428.2c-2.9,0.4-5.3,1.9-7.6,3.3l-1.4,0.9c-2,1.1-4.1,1.8-6.3,2.1c-1.6,0.3-3.1,0.7-4.6,1.2
	c-2.1,0.9-4.1,1.8-6,2.9c-1.1,0.6-2.3,1.3-3.5,1.8c-0.5,0.2-0.8,0.8-0.7,1.3c0.1,0.7,0.7,1.2,1.3,1.2l2.6,0.3c2.8,0.2,5.7,0.5,8.5,1
	c1.7,0.3,3.3,0.7,4.9,1.2c1.4,0.4,2.8,0.8,4.3,1.1c2,0.3,4.1,0.5,6.1,0.5c3.2,0.1,6.6,0.3,9.5,1.7c0.2-0.1,0.5-0.1,0.7-0.2
	c0.1-6.4,0-12.9-0.1-19.4c-0.5-0.3-1-0.6-1.5-0.8C148.8,428.1,146.7,428,144.6,428.2z"/>
<path class="st2" d="M24.2,439.5c3.3-1.1,6.8-1.7,10.3-1.7c1.3-0.1,2.7-0.2,4.1-0.4c4.6-0.6,9.2-1.8,13.6-3.4c2.8-1,5.8-1.7,8.7-2.4
	c2.1-0.5,4.2-1,6.3-1.6c0.6-0.2,1-0.8,1-1.4c0-0.6-0.4-1.1-1-1.2c-2.5-0.5-5-1.3-7.5-2.2c-2.6-1-5.3-1.8-8-2.3
	c-2.9-0.4-5.9-0.5-8.9-0.4c-2.5,0.1-5,0-7.5-0.2c-2.9-0.4-5.7-1.2-8.4-2.2c-3.9-1.4-7.9-2.7-12-2.4c-2.2-0.1-3.3,1.8-4.3,2.7
	c-0.6,8.1-1.1,16.2-1.5,24.2c1.9-0.8,5.5-2.7,6.7-3C18.7,441.1,21.5,440.4,24.2,439.5z"/>
<path class="st2" d="M23.3,376.9h0.9c2.5,0.1,4.9-0.1,7.4-0.4c2.9-0.7,5.8-1.8,8.4-3.3c2.1-1.2,4.3-2.1,6.6-2.8
	c1.8-0.4,3.7-0.7,5.6-0.7c1.1-0.1,2.2-0.1,3.3-0.3c2.4-0.3,4.9-0.9,7.2-1.4l1.1-0.2c6.4-1.5,12.2-3,17.6-4.7c0.6-0.1,1-0.7,0.9-1.3
	c-0.1-0.7-0.6-1.2-1.2-1.2c-1.1-0.1-2.2-0.4-3.3-0.6c-1.8-0.4-3.6-0.7-5.4-0.8c-1.2,0-2.3,0.1-3.4,0.2c-2,0.3-4,0.2-5.9-0.1
	c-1.9-0.4-3.8-1-5.6-1.7c-2.3-0.9-4.8-1.6-7.3-2c-2.5-0.2-5.1-0.2-7.6-0.1c-3.2,0.3-6.4,0.1-9.5-0.4l-2.4-0.5
	c-3.7-0.9-9.5-2.9-13.3-2.9l0,0l-0.1,0.8c0.2,0.4,0.4,0.9-0.1,0.9c-0.1,1-0.2,2-0.3,3c0,0.7-0.1,1.5-0.1,2.2c-0.2,1.7-0.4,3.4-0.7,5
	c-0.4,4.1-0.9,8.2-1.3,12.4c0.4,0,0.3,0.2,0,0.4c0,0.5-0.1,1-0.2,1.5c2.1-0.2,5.8-0.8,6.7-0.9S22.6,376.9,23.3,376.9z"/>
<path class="st2" d="M41.8,304.9c1.3-0.3,2.7-0.4,4.1-0.6c2-0.2,4-0.5,6-1c2.4-0.8,4.8-1.8,7-3c3.3-1.6,6.5-3.2,10.5-3.5
	c7.1-0.6,12.6-1.9,17.6-4.2c0.5-0.2,0.7-0.7,0.6-1.2c-0.1-0.6-0.6-1-1.2-1.1c-2.1-0.1-4.2-0.2-6.3-0.4c-4.5-0.5-9-0.5-13.5,0
	l-0.7,0.1c-1.9,0.5-3.9,0.5-5.8,0.1c-0.9-0.2-1.7-0.6-2.5-1c-0.5-0.3-1.1-0.5-1.7-0.8c-2.4-0.9-5-1.3-7.5-1.1
	c-1.1,0-2.2,0.1-3.3,0.2c-2.4,0.2-4.8,0.2-7.3,0l-0.9-0.1c-1.6,0.1-3.1-0.7-4-1.9c0-0.1,0-0.2,0-0.3c0-0.3-0.1-0.6-0.3-0.8
	c-1.9-1.6-3.9-1.1-5.8-0.7c-0.5,0.1-1.1,0.3-1.7,0.4c0-0.2-1-0.3-1.8-0.2c-0.4,10.6-1.3,21.8-2.4,33.4c4.1-0.6,10-5.8,12.7-8
	C35.9,307,38.7,305.6,41.8,304.9z"/>
<path class="st2" d="M152.3,402.3c-1.1-25.1-3.4-49.6-5.6-73.3c-4.3-46.3-8-86.3-0.6-108.7c0.7-2.4,0.2-5-1.3-7
	c-6.4-8.2-31.9-8.4-58.8-8.5h-6.4l-6.9,0.2c-28.1,0.8-52.3,1.5-57.7,9.3c-1.2,1.8-1.5,4.2-0.6,6.2v0.1c13.3,28,8,76.2,1.9,132
	c-1.7,15.8-3.5,32.1-4.9,48.5c-2,20.5-3.2,39.5-3.7,57h2c0.5-17.5,1.7-36.4,3.7-56.8c1.4-16.4,3.2-32.7,4.9-48.5
	c6.2-56.1,11.5-104.6-2-133c-0.6-1.4-0.5-3.1,0.4-4.4c4.8-7,30.9-7.8,56.1-8.5l6.9-0.2H86c25.3,0.1,51.4,0.3,57.3,7.7
	c1.2,1.5,1.5,3.4,1,5.2c-7.5,22.7-3.8,62.9,0.5,109.5c2.2,23.7,4.4,48.1,5.6,73.2c1.2,20.7,1.5,39.2,1.1,55.7h1.9
	C153.8,437.6,153.2,418.1,152.3,402.3z"/>
<path class="st0" d="M79.7,141.7L79.7,141.7c-111.1,1.5-79.1,84.5-53.1,91.5c13.7,3.7,15.9-3.6,15.9-13.6v-7.4h0.9v7.4
	c-0.2,10,7.7,18.3,17.7,18.5c10,0.2,18.3-7.7,18.5-17.7c0-0.3,0-0.6,0-0.9v-7.4h0.9v7.4c0,10,8.1,18.1,18.1,18.1l0,0
	c10,0,18.1-8.1,18.1-18.1c0,0,0,0,0,0v-7.4h0.9v7.4c0,10,4.1,17.6,13.1,16.1C160.8,230.6,193.6,146.2,79.7,141.7z"/>
<path class="st1" d="M144,160.2c-14-11.8-35.6-18.4-64.2-19.6l0,0C25,141.4,7.5,162.6,2.3,179.1c2.1,1.7,4.5,3.7,5.3,3.1
	c1.2-0.8-1.3-10.8,0.2-11.5c1.2-0.7,5.7,8.3,7.2,7.8c1.3-0.5,0.1-10.9,1.6-11.4s5.1,9,6.6,8.6s0.8-10.9,2.4-11.2
	c1.5-0.4,4.7,9.4,6.2,9c1.5-0.4,1.3-10.8,2.8-11.1c1.5-0.3,4.3,9.6,5.9,9.3c1.5-0.3,1.7-10.7,3.2-11c1.5-0.3,4.1,9.8,5.6,9.6
	s2-10.6,3.5-10.8c1.5-0.2,3.8,9.9,5.3,9.8s2.3-10.6,3.8-10.7s3.5,10,5,9.9s2.6-10.5,4.1-10.5s3.3,10.2,4.8,10.2
	c1.5,0,2.8-10.4,4.3-10.4c1.5,0,3,10.3,4.5,10.3s3.1-10.3,4.6-10.2s2.7,10.4,4.2,10.4s3.4-10.1,4.9-10c1.5,0.1,2.4,10.5,3.9,10.6
	c1.5,0.1,3.7-10,5.2-9.8s2.1,10.6,3.5,10.8s4.1-9.8,5.6-9.6s1.6,10.7,3.1,11c1.5,0.3,4.6-9.5,6-9.2s1.1,10.8,2.6,11.2
	s5.1-9.2,6.5-8.7c1.4,0.5,0.4,10.9,1.8,11.4s5.7-8.6,7.1-8s-0.5,10.8,0.9,11.5c1.3,0.7,6.6-7.8,7.9-7s-1.8,10.6-0.6,11.6
	c0.8,0.6,3.6-2.1,5.9-3.8C155.1,172.4,150.3,165.5,144,160.2z"/>
<path class="st3" d="M144,160.2c-14-11.8-35.6-18.4-64.2-19.6l0,0c-70.8,1-79.3,36-79.8,51c-0.6,22.5,14,41.7,26.5,42.5
	c11.6,0.8,15.2-6.3,16.4-10.5c2,7.8,9.1,13,18.6,13S78,231.7,80,224c2,7.6,9,12.6,18.5,12.6c9.3,0,16.2-4.8,18.4-12.1
	c1.1,6.1,4.5,11.8,13.6,12.1h0.6c14.4,0,28.6-19,29.4-39.5C161.1,182.9,155.2,169.8,144,160.2z M158.6,197.1
	c-0.7,19.8-14.4,38-27.9,37.6c-8.2-0.3-12.1-5.2-12.1-15.1v-7.4c0-0.5-0.4-1-0.9-1h-0.1c-0.5,0-0.9,0.4-1,0.9l-0.9,7.4
	c0,0,0,0.1,0,0.1c0,8.9-7,15.1-17.1,15.1s-17.1-6.2-17.1-15.1v-7.4c0-0.6-0.4-1-0.9-1.1c-0.6,0-1,0.4-1.1,0.9l-0.9,7.4
	c0,0,0,0.1,0,0.1c0,8.9-7,15.1-17.1,15.1c-9.9,0-16.9-6.2-17.1-15.2l-0.9-7.4c0-0.6-0.5-1-1.1-0.9s-1,0.5-0.9,1.1v7.4
	c0,0.1,0,0.1,0,0.2c-0.1,3.3-1.4,6.5-3.7,9c-2.6,2.6-6.3,3.8-11.2,3.4C12.8,231.3,1.5,209.1,2,191.7c0.4-14.4,8.7-48.1,77.7-49
	c28.2,1.1,49.4,7.5,63,19.1C156.4,173.5,158.9,187.5,158.6,197.1L158.6,197.1z"/>
<path class="st4" d="M35.9,21.9c0-0.2,0-0.4,0-0.6s0-0.4,0.1-0.6V8.1c0-0.8,0-1.6,0-2.5s0-1.6,0-2.5c-0.1-0.2-0.1-0.4-0.2-0.6
	c0-0.2-0.1-0.5-0.1-0.7c0-0.2,0-0.4,0.1-0.6c0.1-0.2,0.2-0.4,0.3-0.6c0.1-0.2,0.3-0.3,0.5-0.4c0.2-0.1,0.5-0.2,0.7-0.1
	c0.4,0,0.9,0,1.3,0.1c0.5,0.1,1,0.1,1.5,0.1c0.5,0,0.9,0,1.3-0.1s0.9-0.1,1.4-0.1c1.4,0,2.8,0.1,4.1,0.4c1.1,0.3,2.2,0.7,3.2,1.4
	c0.9,0.6,1.5,1.4,2,2.4c0.5,1.1,0.7,2.3,0.7,3.5c0,1.2-0.2,2.3-0.5,3.4c-0.3,0.9-0.7,1.8-1.3,2.6c-0.5,0.7-1.2,1.3-1.9,1.8
	c-0.6,0.5-1.3,0.8-2,1.1c0.1,0.5,0.2,1,0.4,1.5c0.2,0.5,0.4,0.9,0.8,1.2c0.3,0.4,0.7,0.6,1.1,0.9c0.4,0.2,0.9,0.3,1.4,0.3
	c0.3,0,0.7-0.1,1-0.2c0.3-0.1,0.6-0.4,0.8-0.7c0.1-0.2,0.3-0.4,0.5-0.5c0.2-0.2,0.5-0.2,0.8-0.2c0.5,0,0.9,0.1,1.3,0.4
	c0.3,0.3,0.5,0.7,0.4,1.1c0,0.4-0.1,0.9-0.4,1.3c-0.3,0.4-0.6,0.7-1,1c-0.5,0.3-1,0.5-1.6,0.7c-0.7,0.2-1.4,0.3-2.1,0.3
	c-0.7,0-1.3-0.1-1.9-0.3c-0.6-0.2-1.1-0.5-1.6-0.8c-0.5-0.3-0.9-0.7-1.2-1.2c-0.3-0.4-0.6-0.9-0.9-1.4c-0.2-0.5-0.4-1-0.6-1.5
	c-0.1-0.4-0.3-0.9-0.4-1.3h-2.2h-1.1h-1.2v2.1c0,0.5,0.1,0.9,0.2,1.4c0.1,0.4,0.2,0.9,0.2,1.4c0,0.3-0.1,0.5-0.2,0.7
	c-0.1,0.2-0.3,0.4-0.5,0.5c-0.2,0.1-0.4,0.2-0.6,0.3C38.4,24,38.2,24,38,24c-0.3,0-0.6,0-0.8-0.2c-0.2-0.1-0.5-0.2-0.7-0.4
	C36.1,23,35.9,22.5,35.9,21.9L35.9,21.9z M39.4,14.2h0.9h1h0.8h0.5c1.1,0.1,2.3-0.1,3.3-0.5c0.8-0.3,1.5-0.8,2-1.5
	c0.5-0.6,0.8-1.3,1-2.1c0.2-0.8,0.3-1.6,0.3-2.4c0-0.6-0.1-1.3-0.3-1.9c-0.2-0.5-0.5-0.9-0.9-1.2c-0.4-0.3-0.8-0.6-1.3-0.8
	c-0.5-0.2-1-0.3-1.5-0.4c-0.5-0.1-1-0.1-1.5-0.2h-1.2h-1.5c-0.5,0-1.1,0-1.7,0c0,0.4,0,0.7,0,1s0,0.6,0,0.9s0,0.6,0,0.9v1
	c0,0.7,0,1.3,0,1.9s0,1.1,0,1.7c0,0.6,0,1.1,0,1.7S39.4,13.6,39.4,14.2z M46.4,17.1L46.4,17.1z"/>
<path class="st4" d="M58.5,12c0-1.7,0.2-3.3,0.8-4.9c0.5-1.4,1.2-2.7,2.1-3.8c0.9-1.1,2.1-1.9,3.3-2.5C66.1,0.3,67.6,0,69.1,0
	c1.5,0,3,0.3,4.4,0.9c1.3,0.6,2.4,1.4,3.2,2.5c0.9,1.1,1.6,2.4,2,3.8c0.5,1.6,0.7,3.2,0.6,4.9c0,1.6-0.2,3.2-0.7,4.7
	c-0.5,1.4-1.2,2.7-2.1,3.8c-0.9,1-2,1.9-3.3,2.5c-1.3,0.7-2.8,1-4.3,1c-1,0-2-0.1-3-0.4c-0.9-0.3-1.8-0.7-2.5-1.2
	c-0.8-0.5-1.5-1.1-2.1-1.9c-0.6-0.7-1.1-1.5-1.6-2.4c-0.4-0.9-0.8-1.9-1-2.9C58.6,14.2,58.5,13.1,58.5,12z M62,12
	c0,0.7,0.1,1.5,0.2,2.2c0.1,0.7,0.3,1.4,0.6,2.1c0.3,0.7,0.6,1.3,1,1.8c0.4,0.6,0.9,1.1,1.4,1.5c0.5,0.4,1.1,0.8,1.8,1
	c0.7,0.2,1.4,0.4,2.1,0.4c0.7,0,1.5-0.1,2.2-0.4c0.6-0.2,1.2-0.6,1.8-1c0.5-0.4,1-0.9,1.4-1.5c0.4-0.6,0.7-1.2,1-1.8
	c0.3-0.7,0.4-1.4,0.6-2.1C76,13.5,76,12.8,76,12c0-1.1-0.1-2.3-0.4-3.4c-0.3-1-0.7-2-1.3-2.8C73.1,4,71.1,3,69,3.1
	c-1,0-2.1,0.2-3,0.6c-0.9,0.4-1.6,1-2.2,1.8c-0.6,0.8-1.1,1.8-1.4,2.8C62.1,9.6,61.9,10.8,62,12z"/>
<path class="st4" d="M83.2,12.2c0-1.3,0.1-2.6,0.5-3.9C84,7.3,84.4,6.2,85,5.2c0.5-0.9,1.2-1.7,1.9-2.4c0.7-0.6,1.5-1.2,2.4-1.6
	c0.8-0.4,1.7-0.7,2.7-1C92.9,0.1,93.8,0,94.8,0c0.8,0,1.7,0.1,2.5,0.2c0.8,0.2,1.6,0.4,2.4,0.6l0.7,0.3c0.2,0.1,0.5,0.2,0.7,0.3
	c0.2,0.1,0.4,0.3,0.5,0.5c0.1,0.2,0.2,0.5,0.2,0.8c0,0.3,0,0.6-0.2,0.9c-0.1,0.2-0.3,0.4-0.4,0.6c-0.2,0.1-0.4,0.2-0.6,0.3
	c-0.2,0.1-0.4,0.1-0.6,0.1c-0.2,0-0.3,0-0.4-0.1c-0.2,0-0.3-0.1-0.5-0.2c-0.2-0.1-0.3-0.2-0.5-0.2c-0.2-0.1-0.3-0.2-0.4-0.3
	c-0.3-0.1-0.7-0.2-1-0.3c-0.3-0.1-0.6-0.1-0.9-0.2l-0.8-0.1h-0.8c-0.6,0-1.3,0.1-1.9,0.2c-0.6,0.1-1.2,0.4-1.8,0.7
	c-0.6,0.3-1.1,0.7-1.6,1.1c-0.5,0.5-1,1-1.3,1.6c-0.4,0.7-0.7,1.4-0.9,2.2c-0.2,0.9-0.3,1.8-0.3,2.7c0,1.4,0.2,2.9,0.7,4.2
	c0.4,1.1,1,2,1.9,2.8c0.7,0.7,1.6,1.2,2.6,1.5c0.9,0.3,1.9,0.5,2.9,0.5c0.4,0,0.9,0,1.3-0.1c0.4,0,0.8-0.1,1.2-0.2
	c0.3-0.1,0.7-0.2,1-0.3c0.2-0.1,0.5-0.2,0.7-0.3c0.2-0.2,0.5-0.4,0.8-0.6c0.2-0.1,0.5-0.2,0.8-0.2c0.2,0,0.4,0,0.7,0.1
	c0.2,0,0.4,0.1,0.5,0.3c0.2,0.1,0.3,0.3,0.4,0.5c0.1,0.2,0.1,0.5,0.1,0.8c0,0.4-0.2,0.8-0.4,1.1c-0.4,0.4-0.8,0.8-1.4,1l0,0
	c-0.3,0.2-0.6,0.3-0.9,0.4c-0.4,0.2-0.9,0.3-1.4,0.4c-0.5,0.1-1,0.2-1.6,0.3c-0.5,0.1-1.1,0.1-1.6,0.1c-1.2,0-2.3-0.1-3.4-0.4
	c-1-0.3-2-0.7-2.8-1.2c-0.8-0.5-1.6-1.1-2.3-1.9c-0.7-0.7-1.2-1.6-1.7-2.5c-0.4-0.9-0.8-1.8-1-2.8C83.3,14.3,83.2,13.3,83.2,12.2z"
	/>
<path class="st4" d="M107,22.2c0-3.4,0-6.8,0-10.1s0-6.7,0-10.1c0-0.5,0.1-1.1,0.4-1.5c0.4-0.3,0.9-0.5,1.4-0.4c0.2,0,0.4,0,0.7,0.1
	c0.2,0.1,0.4,0.2,0.6,0.3c0.2,0.1,0.3,0.3,0.4,0.5c0.1,0.2,0.2,0.4,0.1,0.6c0,1.4,0,2.8,0,4.1s0,2.6,0,3.9l8-7.6
	c0.2-0.2,0.3-0.4,0.5-0.6c0.2-0.2,0.5-0.4,0.8-0.6c0.3-0.2,0.5-0.4,0.8-0.5c0.2-0.1,0.5-0.2,0.7-0.2c0.2,0,0.4,0,0.6,0.1
	c0.2,0.1,0.4,0.2,0.6,0.3c0.2,0.1,0.3,0.3,0.4,0.5c0.1,0.2,0.1,0.5,0.1,0.8c0,0.3,0,0.5-0.1,0.8c-0.1,0.2-0.2,0.4-0.4,0.6
	c-0.2,0.2-0.3,0.3-0.5,0.5c-0.2,0.1-0.4,0.3-0.6,0.4c-1.4,1.3-2.9,2.5-4.3,3.7s-2.9,2.5-4.4,3.7c0.7,0.2,1.3,0.5,1.9,0.9
	c0.6,0.4,1.3,0.9,1.8,1.5c0.6,0.6,1.1,1.1,1.6,1.8c0.5,0.6,0.9,1.2,1.3,1.8s0.6,0.9,0.9,1.3c0.3,0.4,0.5,0.7,0.8,1.1
	c0.2,0.3,0.5,0.5,0.8,0.8c0.2,0.2,0.5,0.3,0.8,0.3c0.2,0,0.4,0,0.7,0c0.3,0,0.5,0.1,0.7,0.2c0.2,0.1,0.4,0.3,0.6,0.5
	c0.2,0.2,0.3,0.5,0.2,0.8c0,0.4-0.1,0.7-0.2,1c-0.2,0.2-0.4,0.4-0.6,0.5c-0.3,0.1-0.6,0.2-0.9,0.2c-0.3,0-0.6,0-1,0
	c-0.6,0-1.1-0.2-1.6-0.4c-0.6-0.3-1.1-0.7-1.5-1.1c-0.5-0.5-0.9-1.1-1.3-1.6c-0.4-0.6-0.9-1.2-1.3-1.8s-0.8-1.2-1.2-1.7
	c-0.4-0.6-0.9-1.1-1.4-1.6c-0.5-0.5-1-0.9-1.6-1.3c-0.5-0.3-1.1-0.6-1.7-0.8v1.7c0,1.1,0,2.2,0,3.2s0,2,0,2.8c0,0.3,0.1,0.5,0.1,0.7
	v0.6c0,0.4-0.2,0.9-0.5,1.1c-0.4,0.3-0.9,0.4-1.4,0.4c-0.2,0-0.3,0-0.5-0.1c-0.2,0-0.4-0.1-0.6-0.3c-0.2-0.1-0.3-0.3-0.4-0.6
	C107,22.8,107,22.5,107,22.2z"/>
</svg>
