<svg id="Layer_1" data-name="Layer 1" xmlns="http://www.w3.org/2000/svg" viewBox="0 0 181 458.19"><defs><style>.cls-1{fill:#fff;}.cls-2{fill:#8c6338;}.cls-3{fill:#fbb03b;}.cls-4{fill:#ffc9c9;}.cls-5{fill:#73512e;}.cls-6{fill:#f5f5f5;}.cls-7{fill:#fcb465;}.cls-8{fill:#965a29;}</style></defs><path class="cls-1" d="M134.45,126.32a8.3,8.3,0,0,1-2.48-.63c-.39-.14-.76-.27-1.11-.37s-.53-.14-.8-.21a8.63,8.63,0,0,1-1.35-.41c-1.07-.49-1.76-1.49-3.06-3.45,2.6-2.12,4.75-6.36,6.19-9.5,1-2.22,1.9-4.53,2.76-6.77.46-1.22.93-2.44,1.42-3.66.25-.6.45-1.27.67-2a12.1,12.1,0,0,1,1.52-3.59,1.51,1.51,0,0,1,.62.45c1.06,1.21,2.12,4.74,1.14,14.71l-.07.81c-.33,3.45-1.31,14-5.15,14.56A1.53,1.53,0,0,1,134.45,126.32Z" transform="translate(-9.59 -20.96)"/><path class="cls-2" d="M138.42,97.41c.64,1.27,1.42,4.63.56,13.42l0,.17-.06.63c-1.07,11.48-3.16,13.5-4.3,13.68h-.15a7.7,7.7,0,0,1-2.14-.57c-.38-.14-.78-.28-1.17-.39l-.84-.22a8.34,8.34,0,0,1-1.17-.35c-.68-.31-1.17-.91-2.17-2.38,2.45-2.37,4.43-6.28,5.79-9.24,1-2.25,1.92-4.58,2.78-6.83.46-1.2.93-2.44,1.42-3.64.26-.65.48-1.36.7-2a22.61,22.61,0,0,1,.77-2.24m-.59-2.72c-1.5,1.44-2,4.33-2.73,6.26-1.41,3.46-2.62,7-4.17,10.38-1.33,2.91-3.82,8-6.65,9.66,1.75,2.63,2.53,3.94,4,4.62a18.76,18.76,0,0,0,2.28.67,15.06,15.06,0,0,0,3.87,1,2.32,2.32,0,0,0,.46,0c4.85-.76,5.67-12.29,6-16.09.29-2.92,1.69-16.36-3.12-16.5Z" transform="translate(-9.59 -20.96)"/><path class="cls-1" d="M178.6,171.89c-2.07,0-5.7-3.49-7.35-7a39.28,39.28,0,0,1,5.27-5.1,50.84,50.84,0,0,0,4.44-4.11l1.4-1.47c1-1.07,2.08-2.17,3-3.35a15,15,0,0,0,1.3-2.13,8.48,8.48,0,0,1,1.83-2.65,1.51,1.51,0,0,1,.7-.33c.31.24.88,2.37-.45,9.08a31.09,31.09,0,0,1-5.41,12.5l-.27.36c-1,1.28-2.91,3.93-4.22,4.15A1.14,1.14,0,0,1,178.6,171.89Z" transform="translate(-9.59 -20.96)"/><path class="cls-2" d="M189.38,146.76h0m-.81.74a34.38,34.38,0,0,1-6,19.26l-.27.37c-1.77,2.38-3,3.64-3.59,3.76h-.08c-1.44,0-4.53-2.8-6.17-5.84a42.49,42.49,0,0,1,4.73-4.47,52.52,52.52,0,0,0,4.52-4.19l1.38-1.46c1.05-1.08,2.12-2.2,3.09-3.42a15.93,15.93,0,0,0,1.4-2.28c.3-.55.67-1.24,1-1.73m.64-2.72a2.35,2.35,0,0,0-1.27.5c-1.36.94-2.28,3.64-3.34,5-1.34,1.67-2.91,3.18-4.38,4.76-3.11,3.38-7.43,6.1-10.12,9.75,1.5,3.62,5.64,8.11,8.51,8.11a2.73,2.73,0,0,0,.41,0c1.85-.31,4-3.42,5.13-4.9a32.19,32.19,0,0,0,5.58-12.87c.27-1.36,2.07-10.31-.52-10.31Z" transform="translate(-9.59 -20.96)"/><path class="cls-1" d="M59.68,126.31c-3.87-.33-5.59-10.75-6.15-14.18l-.13-.79c-1.67-9.89-.86-13.48.12-14.76a1.58,1.58,0,0,1,.59-.49,12.12,12.12,0,0,1,1.76,3.47c.27.69.52,1.34.8,1.93.58,1.17,1.13,2.36,1.68,3.54,1,2.18,2,4.42,3.22,6.57,1.66,3,4.1,7.12,6.84,9-1.17,2-1.79,3.1-2.82,3.66a8.08,8.08,0,0,1-1.32.5l-.78.26c-.34.13-.7.29-1.08.46a7.68,7.68,0,0,1-2.58.8Z" transform="translate(-9.59 -20.96)"/><path class="cls-2" d="M54,97.75a23,23,0,0,1,.93,2.18c.26.67.53,1.37.84,2,.56,1.16,1.12,2.37,1.66,3.53,1,2.19,2.07,4.45,3.26,6.62,1.56,2.86,3.8,6.62,6.41,8.82-.89,1.54-1.34,2.16-2,2.52a8.38,8.38,0,0,1-1.14.43c-.28.09-.56.18-.82.28s-.77.31-1.15.47a7.13,7.13,0,0,1-2.17.72h-.07c-2.69-.23-4.44-8.45-5.24-13.34l-.11-.63,0-.17c-1.46-8.7-.92-12.11-.37-13.42m.4-2.76c-4.79.48-2.46,13.79-2,16.69.63,3.75,2.26,15.21,7.15,15.63h.24c1.31,0,2.81-.87,4-1.32a17,17,0,0,0,2.23-.82c1.43-.78,2.12-2.14,3.69-4.89-2.94-1.49-5.78-6.36-7.31-9.17-1.78-3.26-3.24-6.71-4.88-10.07C56.66,99.18,56,96.33,54.41,95Z" transform="translate(-9.59 -20.96)"/><path class="cls-1" d="M21.58,171.89a1,1,0,0,1-.25,0c-1.32-.22-3.28-2.87-4.23-4.15l-.27-.36a31,31,0,0,1-5.4-12.46c-1.34-6.75-.76-8.88-.43-9.14a2.76,2.76,0,0,1,.67.35,8.55,8.55,0,0,1,1.83,2.64,14.59,14.59,0,0,0,1.3,2.14c.94,1.18,2,2.28,3,3.35l1.4,1.47a51,51,0,0,0,4.45,4.11,39.79,39.79,0,0,1,5.26,5.1C27.29,168.4,23.65,171.89,21.58,171.89Z" transform="translate(-9.59 -20.96)"/><path class="cls-2" d="M11.79,146.36h0m-.18,1.13c.34.5.71,1.19,1,1.74a15.93,15.93,0,0,0,1.4,2.28c1,1.22,2.05,2.34,3.09,3.42.46.49.93,1,1.38,1.46A52.52,52.52,0,0,0,23,160.58a42.49,42.49,0,0,1,4.73,4.47c-1.64,3-4.73,5.84-6.16,5.84h-.09c-.62-.12-1.82-1.38-3.58-3.76l-.28-.37a30.39,30.39,0,0,1-5.22-12.09,30.1,30.1,0,0,1-.8-7.18M11,144.78c-2.59,0-.79,8.95-.52,10.31A32.33,32.33,0,0,0,16,168c1.11,1.48,3.28,4.59,5.13,4.9a2.86,2.86,0,0,0,.42,0c2.86,0,7-4.49,8.5-8.11-2.69-3.65-7-6.37-10.12-9.75-1.46-1.58-3-3.09-4.37-4.76-1.07-1.35-2-4.05-3.35-5a2.35,2.35,0,0,0-1.27-.5Z" transform="translate(-9.59 -20.96)"/><path class="cls-1" d="M34.93,214.11a17.5,17.5,0,0,1,8,14.75C42.38,312.43,35,395.79,28.06,479.15h145.1c-6.41-101.95-13.58-215.82-15.72-249.84a17.51,17.51,0,0,1,7.64-15.59,77.5,77.5,0,0,0,7.14-5.23c8.63-7.92,14.19-23.33,12.67-35.07-1.08-8.36-5.46-15-12.32-18.59a23.67,23.67,0,0,0-11.14-2.75,28,28,0,0,0-12.42,3c2.29-9.22,1.79-20.07-1.77-28-3.48-7.67-9.58-12.71-17.21-14.18a24.22,24.22,0,0,0-4.49-.43c-13.41,0-23,11-28.36,22.73-5.34-11.71-14.93-22.69-28.33-22.69a24.41,24.41,0,0,0-4.5.43c-7.62,1.47-13.73,6.51-17.2,14.18-3.28,7.27-4,17.06-2.26,25.77A26.22,26.22,0,0,0,38,152a23.57,23.57,0,0,0-10.81,2.59c-6.91,3.52-11.39,10-12.59,18.39-1.7,11.72,3.64,27.21,12.14,35.27A82.13,82.13,0,0,0,34.93,214.11Z" transform="translate(-9.59 -20.96)"/><path class="cls-3" d="M173.16,479.15C167.8,394,161.92,300.53,158.88,252.22l-.25.38-2.21-.87-1.09-.44-.67,1-1.82,2.59a1.72,1.72,0,0,1-2.11.58l-1-.45-1.09-.49-.71,1-1.8,2.4a1.72,1.72,0,0,1-2.15.5l-1.08-.54-1.08-.55-.75.95-1.77,2.22a1.73,1.73,0,0,1-2.18.43l-1.16-.65-1.07-.6-.79.94-1.74,2a1.72,1.72,0,0,1-2.2.36l-1.24-.76-1-.64-.83.91c-.56.63-1.13,1.26-1.7,1.88a1.71,1.71,0,0,1-2.22.28l-1.32-.87-1-.69-.86.89-1.66,1.73a1.73,1.73,0,0,1-2.24.2l-1.39-1-1-.73-.89.87-1.62,1.57a1.72,1.72,0,0,1-2.24.13l-1.46-1.13-1-.76-.92.84-1.56,1.42a1.73,1.73,0,0,1-2.25.05l-1.52-1.26-1-.8-1,.81-1.51,1.28a1.72,1.72,0,0,1-2.25,0l-1.58-1.4-.93-.83-1,.78-1.43,1.14a1.73,1.73,0,0,1-2.25-.1c-.55-.51-1.09-1-1.63-1.55l-.9-.86-1,.74-1.36,1a1.72,1.72,0,0,1-2.24-.17l-1.68-1.7-.87-.89-1,.71-1.29.88a1.74,1.74,0,0,1-2.24-.25l-1.71-1.86-.84-.91-1,.66-1.22.77a1.72,1.72,0,0,1-2.21-.33l-1.75-2-.8-.93-2.17,1.27a1.75,1.75,0,0,1-1.18.21h0a1.74,1.74,0,0,1-1-.61c-.59-.72-1.19-1.45-1.78-2.19l-.76-.95-2.1,1.12a1.76,1.76,0,0,1-1.19.16h0a1.66,1.66,0,0,1-1-.64c-.61-.78-1.21-1.57-1.81-2.36l-.72-1-1.87.9a1.77,1.77,0,0,1-1.57,0l-.34-.19a1.77,1.77,0,0,1-.58-.51c-.54-.76-1.09-1.52-1.63-2.29l-.69-1-.5.21c-1.58,75.76-8.21,151.36-14.54,227Z" transform="translate(-9.59 -20.96)"/><path class="cls-2" d="M38.89,333.25c.67-.81.88-1.72,1.52-2.39a2.5,2.5,0,0,0,.4-.31c5.35-5.32,10.43-8.76,16-10.82,1.61-.6,3.31-1.08,5-1.54A44.87,44.87,0,0,0,69,315.71c3.39-1.63,5.6-3.78,6.58-6.41a9.58,9.58,0,0,0,.42-3.56,9.43,9.43,0,0,1,.27-2.93c.49-1.55,2-2.48,3.43-3.38a16.28,16.28,0,0,0,2-1.44c1.39-1.21,4.42-4.38,2.75-7.65s-6.84-3.95-10.29-4.49l-1-.16a35,35,0,0,0-16,.91c-3.7,1.1-6.62,1.87-10.59,1.65a18.66,18.66,0,0,0-4.44.09c0-.09,0-.17,0-.26a7.75,7.75,0,0,0-.7.36,12.32,12.32,0,0,0-1,.77q-.91,22.35-2.27,44.7A4.45,4.45,0,0,0,38.89,333.25Z" transform="translate(-9.59 -20.96)"/><path class="cls-2" d="M30,468.49v-.42a1.43,1.43,0,0,0,.33-.47c.81-1.88,3.62-2.86,6.09-3.73a24.41,24.41,0,0,0,2.84-1.12l.37-.18c2.25-1.11,5-2.5,5.87-5.23.77-2.52-.45-4.39-1.75-5.88a8.49,8.49,0,0,0-.92-.83,4,4,0,0,1-1.26-1.34,5.77,5.77,0,0,1,1.06-5,29,29,0,0,1,2.14-2.41,26.6,26.6,0,0,0,2.53-2.94l.68-1c1.81-2.63,3.24-4.72,6.11-6.41a38.51,38.51,0,0,1,10.67-3.8l3.2-.73c5.47-1.22,11.14-2.49,15.78-5.8,3.32-2.37,5.47-5.48,5.9-8.55a8.42,8.42,0,0,0-1.94-6.57,15,15,0,0,0-7.57-4.76A42.67,42.67,0,0,0,73,400a16.76,16.76,0,0,0-2.64,0c-1.47.08-3.14.17-4-.3-2.15-1.2-1.8-2.23-1.27-3.8a5.28,5.28,0,0,0,.28-3.65c-.9-2.5-3.55-3.24-6-3.64-.68-.1-1.53-.2-2.46-.3-3.63-.41-9.13-1-10.07-3.43-.45-1.15.17-2.72,1.86-4.65a31.6,31.6,0,0,1,2.51-2.42c3.3-3,7.41-6.73,6-10.77-1.73-5.12-9-4.67-14.84-4.31a30.34,30.34,0,0,1-5.53.05,1.15,1.15,0,0,0-.32,0c0-.08,0-.15,0-.23l-.23,0c-2.41,34.94-5.33,69.7-8.2,104l-.27,3.18.06,0A6.16,6.16,0,0,0,30,468.49Z" transform="translate(-9.59 -20.96)"/><path class="cls-2" d="M165,353.51v.17c-2.54,3.93-6.78,5.52-13.74,5.13l-3.77-.23c-4.36-.28-8.87-.56-13.37-.4-7.69.28-16.7.91-25.23,3.48l-.93.28c-3.83,1.12-10.26,3-11.44,7.16a4.11,4.11,0,0,0,.47,3.51c1.81,2.8,6.91,4.09,10.88,4.69l2,.28c1.67.22,3.4.46,5.06.85,3.53.84,5.28,2.16,6.94,5.23s4,4.67,7.82,5.28a44.5,44.5,0,0,0,9.72.11c1.13-.07,2.25-.14,3.37-.18,7.91-.27,13.61,1.8,17.95,6.52,2.79,3,5.43,6.58,3.89,9.83-.93,2-3.22,2.89-5.49,3.67-1.6.54-3.25,1-4.86,1.39a40.21,40.21,0,0,0-7.94,2.64,12,12,0,0,0-6.67,8,9.71,9.71,0,0,0,2.35,8.36c2.25,2.66,5.5,4.66,9.95,6.12l.9.29c2.79.88,6.6,2.08,6.84,5.29.11,1.52-.64,2.26-1.51,3.12a6.66,6.66,0,0,0-1.59,2.06c-1.55,3.57,2.11,6.22,3.86,7.49.36.26.74.5,1.11.73a13.19,13.19,0,0,1,1.35.9c1.79,1.45,2.61,3.41,3.47,5.49l.32.77a38.13,38.13,0,0,0,2,3.74,25.9,25.9,0,0,1,2.53,5.18l0,.4.25.27a8.91,8.91,0,0,0,2.21,1.52l-7.56-120.18a3,3,0,0,0-.38.31Z" transform="translate(-9.59 -20.96)"/><path class="cls-2" d="M159.74,287.14a13.91,13.91,0,0,0-1.35,1.5,13.89,13.89,0,0,1-7.22,5A42.05,42.05,0,0,0,139,300.11a4.2,4.2,0,0,0-1.78,3.93c.35,2.8,3.48,5.75,6.3,7a8.34,8.34,0,0,0,1.09.35c1.21.35,3.22.92,3.59,1.92a1.54,1.54,0,0,1-.35,1.38,2.67,2.67,0,0,1-1.24.66,3.8,3.8,0,0,0-1.46.74c-1,1-1.82,2.55,0,4.67,1.49,1.68,3.52,1.89,5.49,2.09a9.18,9.18,0,0,1,4.09,1.05,10.17,10.17,0,0,1,2.76,2.9c.41.55.83,1.12,1.31,1.67a22.32,22.32,0,0,0,1.85,1.8c1.38,1.25,2.67,2.42,3.21,4.3a1.33,1.33,0,0,0,.3.53l.06.52a4,4,0,0,0,.41.41,4.17,4.17,0,0,0,.44.29L162,286.19c-.73.27-1.47.53-2.23.77A1.1,1.1,0,0,0,159.74,287.14Z" transform="translate(-9.59 -20.96)"/><path class="cls-4" d="M126.31,161.76c-6,0-13.74-3.53-16.86-7.7a5.37,5.37,0,0,1-1.21-4.81c2.87-9.7,9.51-20.13,17.3-20.13a9.33,9.33,0,0,1,1.74.17c2.91.56,5.15,2.53,6.66,5.86,3.29,7.28,2,18.4-1.18,23.84C131.42,161.28,128.51,161.76,126.31,161.76Z" transform="translate(-9.59 -20.96)"/><path class="cls-2" d="M125.54,130.1h0a8.14,8.14,0,0,1,1.55.15c2.59.49,4.59,2.28,6,5.3,3.08,6.81,1.94,17.73-1.12,22.95-1.11,1.89-3.67,2.28-5.62,2.28-5.76,0-13.12-3.34-16.08-7.3a4.5,4.5,0,0,1-1.06-4,41.9,41.9,0,0,1,6.61-13.35c2.16-2.77,5.61-6.07,9.76-6.07m0-1.95c-8.63,0-15.4,11.26-18.23,20.82-2,6.73,10.29,13.76,19,13.76,3.22,0,5.95-1,7.29-3.25,5-8.47,5.05-29-6.14-31.15a10.56,10.56,0,0,0-1.92-.18Z" transform="translate(-9.59 -20.96)"/><path class="cls-4" d="M68.08,161.8c-2.21,0-5.11-.48-6.46-2.77-3.19-5.44-4.46-16.56-1.17-23.84,1.51-3.33,3.75-5.3,6.66-5.86a9.33,9.33,0,0,1,1.74-.17c7.79,0,14.43,10.43,17.3,20.13a5.35,5.35,0,0,1-1.22,4.81C81.82,158.27,74.1,161.8,68.08,161.8Z" transform="translate(-9.59 -20.96)"/><path class="cls-2" d="M68.85,128.19v1.95c4.15,0,7.59,3.3,9.75,6.07a41.69,41.69,0,0,1,6.61,13.35,4.47,4.47,0,0,1-1.06,4c-3,4-10.32,7.3-16.07,7.3-2,0-4.51-.39-5.62-2.28-3.07-5.22-4.2-16.14-1.12-22.95,1.37-3,3.37-4.81,6-5.3a8.06,8.06,0,0,1,1.55-.15v-1.95m0,0a9.76,9.76,0,0,0-1.92.19c-11.2,2.15-11.13,22.67-6.15,31.14,1.35,2.29,4.08,3.25,7.3,3.25,8.71,0,21-7,19-13.76-2.83-9.56-9.6-20.82-18.23-20.82Z" transform="translate(-9.59 -20.96)"/><path class="cls-4" d="M42.84,201.34a5,5,0,0,1-3-.89c-5.13-3.66-10.83-13.31-10.79-21.29,0-3.65,1.26-6.37,3.69-8.07a9.43,9.43,0,0,1,5.47-1.67c7.14,0,15.26,6.54,20,12.13,1.92,2.24.8,5.63,0,7.44C55.35,195.34,47.85,201.34,42.84,201.34Z" transform="translate(-9.59 -20.96)"/><path class="cls-2" d="M38.26,170.4c4.25,0,11.85,3.08,19.3,11.79,1.57,1.82.56,4.79-.18,6.4-2.78,6-9.85,11.77-14.54,11.77a4,4,0,0,1-2.39-.7c-4.93-3.52-10.42-13-10.39-20.5,0-3.31,1.12-5.76,3.28-7.27a8.41,8.41,0,0,1,4.92-1.49m0-2a10.3,10.3,0,0,0-6,1.84c-9.35,6.54-.92,25.24,7.09,31a5.9,5.9,0,0,0,3.52,1.07c8.72,0,21.65-15,16.2-21.39s-13.63-12.47-20.78-12.47Z" transform="translate(-9.59 -20.96)"/><path class="cls-4" d="M156.55,201.34c-5,0-12.5-6-15.42-12.35-.84-1.81-2-5.2,0-7.44,4.79-5.59,12.92-12.13,20-12.13a9.39,9.39,0,0,1,5.47,1.67c2.43,1.7,3.67,4.42,3.69,8.07,0,8-5.66,17.63-10.79,21.29a5,5,0,0,1-3,.89Z" transform="translate(-9.59 -20.96)"/><path class="cls-2" d="M161.14,170.4a8.41,8.41,0,0,1,4.91,1.49c2.16,1.51,3.26,4,3.28,7.27,0,7.47-5.45,17-10.38,20.5a4,4,0,0,1-2.4.7c-4.69,0-11.75-5.72-14.54-11.77-.74-1.61-1.75-4.58-.18-6.4,7.45-8.71,15.06-11.79,19.31-11.79m0-2c-7.16,0-15.43,6.22-20.79,12.47s7.49,21.39,16.2,21.39a6,6,0,0,0,3.53-1.07c8-5.71,16.43-24.41,7.09-31a10.34,10.34,0,0,0-6-1.84Z" transform="translate(-9.59 -20.96)"/><path class="cls-4" d="M126.74,232.81c-3.19,0-6.53-1.61-10.39-3.47-4.78-2.31-10.2-4.92-16.65-4.92S87.83,227,83,229.34c-3.86,1.86-7.2,3.47-10.39,3.47s-5.88-1.64-8.59-5.16c-2.47-3.2-.24-17,6.43-30.76,3.72-7.66,14-25.49,29.22-25.64h.17c14.68,0,25,17.7,28.72,25.31,6.84,13.92,9.2,27.89,6.73,31.09C132.62,231.17,129.89,232.81,126.74,232.81Z" transform="translate(-9.59 -20.96)"/><path class="cls-2" d="M99.88,172.23c14.13,0,24.18,17.32,27.84,24.76,7,14.29,8.77,27.56,6.84,30.07-3.3,4.28-6,4.78-7.81,4.78-3,0-6.22-1.57-10-3.38-4.87-2.35-10.4-5-17.07-5s-12.2,2.67-17.08,5c-3.76,1.81-7,3.38-10,3.38-1.78,0-4.52-.5-7.82-4.78-1.93-2.51-.31-15.65,6.54-29.75,3.64-7.49,13.69-24.94,28.34-25.08h.17m0-1.95H99.7c-26.11.25-42.12,50.55-36.41,58,3.15,4.09,6.21,5.54,9.36,5.54,7.59,0,15.72-8.4,27.05-8.4s19.46,8.4,27.05,8.4c3.14,0,6.2-1.45,9.35-5.54,5.7-7.4-10.85-58-36.22-58Z" transform="translate(-9.59 -20.96)"/><path class="cls-2" d="M34.4,214.92a16.45,16.45,0,0,1,7.54,13.94c-.5,79.33-7.26,159.8-13.79,237.64q-.52,6.3-1.06,12.65H29q.53-6.25,1.05-12.49c6.53-77.87,13.29-158.39,13.8-237.79a18.39,18.39,0,0,0-8.43-15.58,69.2,69.2,0,0,1-8.08-5.73c-8.3-7.86-13.5-23-11.85-34.42,1.16-8,5.45-14.29,12.07-17.67a23.42,23.42,0,0,1,17-1.56,1,1,0,0,0,.92-.23,1,1,0,0,0,.29-.9c-1.74-8.87-.92-18.29,2.2-25.17,3.34-7.39,9.2-12.23,16.5-13.63a23.13,23.13,0,0,1,4.31-.41c15.66,0,24.41,15.46,27.45,22.11a1,1,0,0,0,1.77,0c3-6.66,11.79-22.15,27.47-22.15a22.32,22.32,0,0,1,4.31.41c7.3,1.4,13.16,6.24,16.5,13.63s4.05,18,1.71,27.31a1,1,0,0,0,1.38,1.11c7.73-3.79,15.86-3.9,22.67-.3,6.58,3.48,10.77,9.82,11.81,17.85C185.41,185,180,200,171.57,207.78h0a78.66,78.66,0,0,1-7,5.14,18.55,18.55,0,0,0-8.07,16.45l15.71,249.78h1.95l-15.72-249.9a16.61,16.61,0,0,1,7.22-14.72,76.41,76.41,0,0,0,7.25-5.32h0c8.83-8.12,14.53-23.9,13-35.92-1.12-8.68-5.68-15.54-12.83-19.32-6.83-3.6-14.9-3.79-22.63-.55,1.89-9.25,1.06-19.3-2.27-26.66-3.6-8-10-13.2-17.9-14.73a24.65,24.65,0,0,0-4.68-.45c-15.46,0-24.52,13.78-28.36,21.44-3.83-7.64-12.89-21.4-28.33-21.4a24.65,24.65,0,0,0-4.68.45c-7.94,1.53-14.3,6.76-17.9,14.73-3.11,6.86-4.05,16-2.6,24.87a25.1,25.1,0,0,0-17,2.07c-7.21,3.67-11.86,10.46-13.12,19.12-1.73,12,3.73,27.86,12.44,36.11A75.06,75.06,0,0,0,34.4,214.92Z" transform="translate(-9.59 -20.96)"/><path class="cls-5" d="M24.33,39.14a3.71,3.71,0,0,1,.51-1.85,1.67,1.67,0,0,1,1.5-.63,1.75,1.75,0,0,1,1.15.38A1.26,1.26,0,0,1,28,38.09a4.11,4.11,0,0,1-.07.78,2.72,2.72,0,0,0,0,.81,1.63,1.63,0,0,0,.45.93,3.42,3.42,0,0,0,1,.72,5.31,5.31,0,0,0,1.36.48A6.76,6.76,0,0,0,32.2,42a8.68,8.68,0,0,0,1.61-.14,4.06,4.06,0,0,0,1.45-.53,3,3,0,0,0,1.06-1.06,3.36,3.36,0,0,0,.4-1.75,2.71,2.71,0,0,0-.34-1.33A4.72,4.72,0,0,0,35.5,36a7.81,7.81,0,0,0-1.19-.94c-.44-.28-.85-.52-1.25-.73-.57-.29-1.15-.57-1.75-.85s-1.17-.56-1.73-.87a13,13,0,0,1-1.6-1,6.21,6.21,0,0,1-1.33-1.28,5.5,5.5,0,0,1-.89-1.7,6.89,6.89,0,0,1-.33-2.23A4.82,4.82,0,0,1,26,24a5.41,5.41,0,0,1,1.6-1.7,7,7,0,0,1,2.26-1A11,11,0,0,1,32.52,21a12.59,12.59,0,0,1,2.32.21,7,7,0,0,1,2,.68,4.37,4.37,0,0,1,1.47,1.26A3.79,3.79,0,0,1,39,25a1.59,1.59,0,0,1-.1.74,1.43,1.43,0,0,1-.38.54,1.87,1.87,0,0,1-.54.33,1.93,1.93,0,0,1-.62.11,2,2,0,0,1-.81-.15,1.67,1.67,0,0,1-.54-.37,1.49,1.49,0,0,1-.31-.51,2.34,2.34,0,0,1-.14-.55,2,2,0,0,0-.58-.6,3.91,3.91,0,0,0-.8-.37,4.7,4.7,0,0,0-.92-.19,7.5,7.5,0,0,0-.93-.06,5.84,5.84,0,0,0-1.25.14,3.84,3.84,0,0,0-1.13.43,2.52,2.52,0,0,0-.82.77,1.93,1.93,0,0,0-.32,1.13,2.66,2.66,0,0,0,.38,1.41,4.42,4.42,0,0,0,.94,1.09,8.26,8.26,0,0,0,1.26.87c.47.26.92.5,1.36.72s1.08.55,1.64.86a18.79,18.79,0,0,1,1.67,1,14.81,14.81,0,0,1,1.55,1.15,8.12,8.12,0,0,1,1.29,1.4,6.6,6.6,0,0,1,.87,1.69,5.91,5.91,0,0,1,.32,2,6.59,6.59,0,0,1-.32,2.11,5.47,5.47,0,0,1-.9,1.63,5.57,5.57,0,0,1-1.33,1.19,7.9,7.9,0,0,1-1.65.81,10.21,10.21,0,0,1-1.83.46,13.61,13.61,0,0,1-1.9.14,11.45,11.45,0,0,1-1.69-.13,11.1,11.1,0,0,1-1.79-.43A8.79,8.79,0,0,1,27,43.65a5.62,5.62,0,0,1-1.4-1.11,4.74,4.74,0,0,1-1-1.49A4.68,4.68,0,0,1,24.33,39.14Z" transform="translate(-9.59 -20.96)"/><path class="cls-5" d="M43.92,33.2a15.1,15.1,0,0,1,.47-3.9,12.24,12.24,0,0,1,1.3-3.1,9.9,9.9,0,0,1,1.93-2.35A10.65,10.65,0,0,1,50,22.22a11.19,11.19,0,0,1,2.69-.95A12.62,12.62,0,0,1,55.49,21a13.73,13.73,0,0,1,2.49.23,17.44,17.44,0,0,1,2.43.65l.72.27a2.53,2.53,0,0,1,.66.32,1.39,1.39,0,0,1,.65,1.25,1.94,1.94,0,0,1-.17.89,1.5,1.5,0,0,1-.44.57,1.71,1.71,0,0,1-.59.29,2.32,2.32,0,0,1-.62.09,1.86,1.86,0,0,1-.45-.06l-.49-.17a4.66,4.66,0,0,1-.5-.25l-.43-.28a7.5,7.5,0,0,0-1-.34c-.32-.07-.62-.12-.91-.16L56,24.2h-.84a8.61,8.61,0,0,0-1.88.22,7.52,7.52,0,0,0-1.82.67,8.23,8.23,0,0,0-1.64,1.15,6.7,6.7,0,0,0-1.32,1.64A8.43,8.43,0,0,0,47.59,30a10.77,10.77,0,0,0-.32,2.71A11,11,0,0,0,48,36.93a7.75,7.75,0,0,0,1.86,2.78,6.81,6.81,0,0,0,2.58,1.53,9.08,9.08,0,0,0,2.9.47,9.79,9.79,0,0,0,1.33-.08,10.48,10.48,0,0,0,1.21-.21,8.59,8.59,0,0,0,1-.28,2.9,2.9,0,0,0,.66-.32,5.16,5.16,0,0,1,.79-.59,1.52,1.52,0,0,1,.8-.21,2.75,2.75,0,0,1,.65.08,1.38,1.38,0,0,1,.53.26,1.3,1.3,0,0,1,.36.49,1.82,1.82,0,0,1,.13.74,1.79,1.79,0,0,1-.42,1.15,4.08,4.08,0,0,1-1.37,1h0a6.83,6.83,0,0,1-.92.4,12.29,12.29,0,0,1-1.36.41c-.51.13-1,.23-1.6.32a11.67,11.67,0,0,1-1.64.13,12.28,12.28,0,0,1-3.41-.45,11.17,11.17,0,0,1-2.84-1.22,10.57,10.57,0,0,1-2.27-1.88A11.49,11.49,0,0,1,45.28,39a12,12,0,0,1-1-2.78A13.22,13.22,0,0,1,43.92,33.2Z" transform="translate(-9.59 -20.96)"/><path class="cls-5" d="M68.74,43.32a9.51,9.51,0,0,1,.12-1.51A11.2,11.2,0,0,0,69,40.23c0-2.54,0-5.1-.07-7.67s-.07-5.22-.07-7.93a4.17,4.17,0,0,0-.09-.85,4.42,4.42,0,0,1-.09-.92,2.48,2.48,0,0,1,.11-.73,1.52,1.52,0,0,1,.36-.61,1.75,1.75,0,0,1,.7-.41A3.57,3.57,0,0,1,70.94,21a1.25,1.25,0,0,1,1.06.51,2.18,2.18,0,0,1,.39,1.36,2.74,2.74,0,0,1,0,.5l-.09.52c0,.86,0,1.78-.05,2.77s0,2.12,0,3.39,0,2.3,0,3.49,0,2.33.05,3.43,0,2.12.08,3.07.08,1.77.13,2.46h0c0,.15,0,.29,0,.42a3,3,0,0,1,0,.42,2.34,2.34,0,0,1-.08.66,1.23,1.23,0,0,1-.28.53,1.2,1.2,0,0,1-.53.35,2.66,2.66,0,0,1-.86.12,3.87,3.87,0,0,1-1-.11,1.43,1.43,0,0,1-.63-.31,1.14,1.14,0,0,1-.33-.52A2.44,2.44,0,0,1,68.74,43.32Z" transform="translate(-9.59 -20.96)"/><path class="cls-5" d="M78.84,39.14a3.82,3.82,0,0,1,.5-1.85,1.7,1.7,0,0,1,1.51-.63A1.75,1.75,0,0,1,82,37a1.26,1.26,0,0,1,.48,1.05,4.13,4.13,0,0,1-.08.78,3.1,3.1,0,0,0,0,.81,1.63,1.63,0,0,0,.45.93,3.42,3.42,0,0,0,1,.72,5.18,5.18,0,0,0,1.36.48,6.7,6.7,0,0,0,1.55.17,8.68,8.68,0,0,0,1.61-.14,4.13,4.13,0,0,0,1.45-.53,3,3,0,0,0,1.06-1.06,3.36,3.36,0,0,0,.4-1.75,2.71,2.71,0,0,0-.34-1.33A4.77,4.77,0,0,0,90,36a7.27,7.27,0,0,0-1.18-.94c-.44-.28-.86-.52-1.25-.73-.57-.29-1.15-.57-1.75-.85s-1.17-.56-1.73-.87a12.32,12.32,0,0,1-1.6-1,6.21,6.21,0,0,1-1.33-1.28,5.74,5.74,0,0,1-.9-1.7,6.89,6.89,0,0,1-.33-2.23A4.82,4.82,0,0,1,80.54,24a5.38,5.38,0,0,1,1.59-1.7,7.19,7.19,0,0,1,2.27-1A11,11,0,0,1,87,21a12.59,12.59,0,0,1,2.32.21,7.14,7.14,0,0,1,2,.68,4.37,4.37,0,0,1,1.47,1.26,3.79,3.79,0,0,1,.7,1.92,1.59,1.59,0,0,1-.1.74,1.43,1.43,0,0,1-.38.54,1.87,1.87,0,0,1-.54.33,2,2,0,0,1-.62.11,2,2,0,0,1-.81-.15,1.67,1.67,0,0,1-.54-.37,1.52,1.52,0,0,1-.32-.51,2.3,2.3,0,0,1-.13-.55,2,2,0,0,0-.58-.6,3.91,3.91,0,0,0-.8-.37,4.85,4.85,0,0,0-.92-.19,7.5,7.5,0,0,0-.93-.06,5.84,5.84,0,0,0-1.25.14,3.74,3.74,0,0,0-1.13.43,2.52,2.52,0,0,0-.82.77,1.93,1.93,0,0,0-.32,1.13,2.66,2.66,0,0,0,.38,1.41,4.22,4.22,0,0,0,.94,1.09,8.26,8.26,0,0,0,1.26.87c.47.26.92.5,1.36.72s1.07.55,1.64.86a18.79,18.79,0,0,1,1.67,1,15.94,15.94,0,0,1,1.55,1.15,8.12,8.12,0,0,1,1.29,1.4,6.6,6.6,0,0,1,.87,1.69,5.91,5.91,0,0,1,.32,2,6.31,6.31,0,0,1-.33,2.11,5.32,5.32,0,0,1-2.23,2.82,7.59,7.59,0,0,1-1.64.81,10.21,10.21,0,0,1-1.83.46,13.61,13.61,0,0,1-1.9.14,11.58,11.58,0,0,1-1.7-.13,11.25,11.25,0,0,1-1.78-.43,8.79,8.79,0,0,1-1.69-.75,5.62,5.62,0,0,1-1.4-1.11,4.74,4.74,0,0,1-1-1.49A4.68,4.68,0,0,1,78.84,39.14Z" transform="translate(-9.59 -20.96)"/><path class="cls-5" d="M99.1,39.14a3.82,3.82,0,0,1,.5-1.85,1.7,1.7,0,0,1,1.51-.63,1.75,1.75,0,0,1,1.15.38,1.26,1.26,0,0,1,.48,1.05,4.13,4.13,0,0,1-.08.78,3.1,3.1,0,0,0,0,.81,1.63,1.63,0,0,0,.45.93,3.51,3.51,0,0,0,1,.72,5.39,5.39,0,0,0,1.37.48A6.64,6.64,0,0,0,107,42a8.68,8.68,0,0,0,1.61-.14,4.13,4.13,0,0,0,1.45-.53,3,3,0,0,0,1.06-1.06,3.36,3.36,0,0,0,.4-1.75,2.71,2.71,0,0,0-.34-1.33,4.77,4.77,0,0,0-.89-1.13,6.94,6.94,0,0,0-1.19-.94c-.43-.28-.85-.52-1.24-.73-.57-.29-1.15-.57-1.75-.85s-1.17-.56-1.73-.87a12.32,12.32,0,0,1-1.6-1,6.21,6.21,0,0,1-1.33-1.28,5.74,5.74,0,0,1-.9-1.7,6.89,6.89,0,0,1-.33-2.23A4.82,4.82,0,0,1,100.8,24a5.38,5.38,0,0,1,1.59-1.7,7.19,7.19,0,0,1,2.27-1,11,11,0,0,1,2.63-.32,12.67,12.67,0,0,1,2.32.21,7.14,7.14,0,0,1,2,.68,4.37,4.37,0,0,1,1.47,1.26,3.79,3.79,0,0,1,.7,1.92,1.59,1.59,0,0,1-.1.74,1.43,1.43,0,0,1-.38.54,1.87,1.87,0,0,1-.54.33,2,2,0,0,1-.63.11,1.94,1.94,0,0,1-.8-.15,1.67,1.67,0,0,1-.54-.37,1.52,1.52,0,0,1-.32-.51,2.3,2.3,0,0,1-.13-.55,2.07,2.07,0,0,0-.58-.6,3.76,3.76,0,0,0-.81-.37A4.55,4.55,0,0,0,108,24a7.22,7.22,0,0,0-.92-.06,5.84,5.84,0,0,0-1.25.14,3.74,3.74,0,0,0-1.13.43,2.43,2.43,0,0,0-.82.77,1.93,1.93,0,0,0-.32,1.13,2.74,2.74,0,0,0,.37,1.41,4.46,4.46,0,0,0,1,1.09,8.26,8.26,0,0,0,1.26.87c.47.26.92.5,1.36.72s1.07.55,1.64.86a18.79,18.79,0,0,1,1.67,1,15.94,15.94,0,0,1,1.55,1.15,8.12,8.12,0,0,1,1.29,1.4,6.93,6.93,0,0,1,.87,1.69,5.91,5.91,0,0,1,.32,2,6.31,6.31,0,0,1-.33,2.11,5.68,5.68,0,0,1-.89,1.63,5.43,5.43,0,0,1-1.34,1.19,7.59,7.59,0,0,1-1.64.81,10.21,10.21,0,0,1-1.83.46,13.61,13.61,0,0,1-1.9.14,11.58,11.58,0,0,1-1.7-.13,11,11,0,0,1-1.78-.43,8.79,8.79,0,0,1-1.69-.75,5.62,5.62,0,0,1-1.4-1.11,4.74,4.74,0,0,1-1-1.49A4.68,4.68,0,0,1,99.1,39.14Z" transform="translate(-9.59 -20.96)"/><path class="cls-5" d="M119.21,33a14.76,14.76,0,0,1,.76-4.87,11,11,0,0,1,2.14-3.78,9.45,9.45,0,0,1,3.33-2.46,11.36,11.36,0,0,1,8.77,0,8.84,8.84,0,0,1,3.23,2.46,10.74,10.74,0,0,1,2,3.78A16.57,16.57,0,0,1,140.1,33a15.06,15.06,0,0,1-.73,4.72,11.39,11.39,0,0,1-2.1,3.8A9.67,9.67,0,0,1,129.66,45a10.27,10.27,0,0,1-3-.42,9.33,9.33,0,0,1-2.55-1.2,9.94,9.94,0,0,1-2.08-1.86,11.58,11.58,0,0,1-1.54-2.42,12.59,12.59,0,0,1-1-2.87A15.45,15.45,0,0,1,119.21,33Zm3.41,0a11.92,11.92,0,0,0,.21,2.22,11,11,0,0,0,.62,2.09,9.35,9.35,0,0,0,1,1.84,7.22,7.22,0,0,0,1.39,1.47,6.37,6.37,0,0,0,1.75,1,6,6,0,0,0,2.09.35,6.09,6.09,0,0,0,3.91-1.32A6.55,6.55,0,0,0,135,39.1a9.16,9.16,0,0,0,1-1.84,11.68,11.68,0,0,0,.57-2.09,13.85,13.85,0,0,0,.18-2.22,13.44,13.44,0,0,0-.42-3.41A8.32,8.32,0,0,0,135,26.71a6.31,6.31,0,0,0-2.16-1.95A6.38,6.38,0,0,0,129.7,24a6.76,6.76,0,0,0-3,.65,6.27,6.27,0,0,0-2.22,1.81,8.43,8.43,0,0,0-1.38,2.8A13.34,13.34,0,0,0,122.62,33Z" transform="translate(-9.59 -20.96)"/><path class="cls-5" d="M145.32,42.85c0-.22,0-.43,0-.64s0-.41.06-.59V29.09c0-.83,0-1.65,0-2.45s0-1.62,0-2.46a4.48,4.48,0,0,1-.15-.59,4.32,4.32,0,0,1-.06-.7,2.28,2.28,0,0,1,.09-.63,1.89,1.89,0,0,1,.3-.56,1.47,1.47,0,0,1,.5-.39,1.52,1.52,0,0,1,.69-.15,10.81,10.81,0,0,1,1.27.07,12.71,12.71,0,0,0,1.46.08c.44,0,.89,0,1.34-.07s.93-.07,1.44-.08a17.68,17.68,0,0,1,4.09.44,8.81,8.81,0,0,1,3.13,1.4,6.24,6.24,0,0,1,2,2.4,7.91,7.91,0,0,1,.7,3.48,9.78,9.78,0,0,1-1.89,6,9.27,9.27,0,0,1-3.86,3,7.23,7.23,0,0,0,.43,1.52,4.33,4.33,0,0,0,.75,1.25,3.25,3.25,0,0,0,1.07.85,3,3,0,0,0,1.37.32,2.87,2.87,0,0,0,1-.18,1.7,1.7,0,0,0,.82-.7,2.6,2.6,0,0,1,.51-.54,1.23,1.23,0,0,1,.76-.23,1.7,1.7,0,0,1,1.26.45,1.54,1.54,0,0,1,.45,1.14,2.24,2.24,0,0,1-.37,1.23,3.34,3.34,0,0,1-1,1,5.67,5.67,0,0,1-1.61.7,7.61,7.61,0,0,1-2.09.27,5.63,5.63,0,0,1-3.47-1.13,6.76,6.76,0,0,1-1.2-1.19,8.25,8.25,0,0,1-.9-1.39,9.85,9.85,0,0,1-.61-1.44,12.81,12.81,0,0,1-.38-1.35h-2.21l-1.07,0h-1.16v2.18A7.66,7.66,0,0,0,149,42a6.19,6.19,0,0,1,.15,1.37,1.39,1.39,0,0,1-.18.73,1.52,1.52,0,0,1-.44.5,1.69,1.69,0,0,1-.58.3,2.12,2.12,0,0,1-1.42-.07,2,2,0,0,1-.64-.43,2.09,2.09,0,0,1-.43-.66A2.15,2.15,0,0,1,145.32,42.85Zm3.5-7.66.92,0,1,0,.85,0h.48a8.44,8.44,0,0,0,3.31-.55,5.08,5.08,0,0,0,2-1.47,5.15,5.15,0,0,0,1-2.09,10.35,10.35,0,0,0,.28-2.43,4.46,4.46,0,0,0-.35-1.85,3.64,3.64,0,0,0-.91-1.25,4.65,4.65,0,0,0-1.29-.77,7.49,7.49,0,0,0-1.45-.42,10.72,10.72,0,0,0-1.46-.17l-1.25,0-1.54,0-1.7,0c0,.38,0,.73,0,1s0,.61,0,.9,0,.59,0,.9v1c0,.68,0,1.31,0,1.9s0,1.15,0,1.7,0,1.11,0,1.67S148.79,34.58,148.82,35.19Zm7,2.87s0,0,0,0Z" transform="translate(-9.59 -20.96)"/><path class="cls-5" d="M168.08,39.14a3.82,3.82,0,0,1,.5-1.85,1.69,1.69,0,0,1,1.5-.63,1.78,1.78,0,0,1,1.16.38,1.26,1.26,0,0,1,.48,1.05,4.13,4.13,0,0,1-.08.78,3.1,3.1,0,0,0,0,.81,1.68,1.68,0,0,0,.44.93,3.42,3.42,0,0,0,1,.72,5.45,5.45,0,0,0,1.36.48A6.78,6.78,0,0,0,176,42a8.68,8.68,0,0,0,1.61-.14,4.13,4.13,0,0,0,1.45-.53,3,3,0,0,0,1.05-1.06,3.36,3.36,0,0,0,.41-1.75,2.73,2.73,0,0,0-.35-1.33,4.72,4.72,0,0,0-.88-1.13,7.35,7.35,0,0,0-1.19-.94c-.43-.28-.85-.52-1.25-.73-.57-.29-1.15-.57-1.74-.85s-1.17-.56-1.74-.87a13.84,13.84,0,0,1-1.6-1,6.4,6.4,0,0,1-1.32-1.28,5.74,5.74,0,0,1-.9-1.7,6.89,6.89,0,0,1-.33-2.23,4.73,4.73,0,0,1,.61-2.46,5.27,5.27,0,0,1,1.59-1.7,7.19,7.19,0,0,1,2.27-1,10.93,10.93,0,0,1,2.62-.32,12.51,12.51,0,0,1,2.32.21,7.1,7.1,0,0,1,2,.68,4.24,4.24,0,0,1,1.46,1.26,3.8,3.8,0,0,1,.71,1.92,1.58,1.58,0,0,1-.11.74,1.41,1.41,0,0,1-.37.54,1.79,1.79,0,0,1-.55.33,1.88,1.88,0,0,1-.62.11,2,2,0,0,1-.81-.15,1.62,1.62,0,0,1-.53-.37,1.52,1.52,0,0,1-.32-.51,2.3,2.3,0,0,1-.13-.55,2,2,0,0,0-.59-.6,3.68,3.68,0,0,0-.8-.37A4.55,4.55,0,0,0,177,24a7.5,7.5,0,0,0-.93-.06,5.82,5.82,0,0,0-1.24.14,3.64,3.64,0,0,0-1.13.43,2.56,2.56,0,0,0-.83.77,1.93,1.93,0,0,0-.31,1.13,2.65,2.65,0,0,0,.37,1.41,4.46,4.46,0,0,0,.95,1.09,7.79,7.79,0,0,0,1.26.87q.69.39,1.35.72c.53.27,1.08.55,1.65.86s1.12.63,1.67,1a15.94,15.94,0,0,1,1.55,1.15,8.06,8.06,0,0,1,1.28,1.4,7,7,0,0,1,.88,1.69,6.16,6.16,0,0,1,.32,2,6.31,6.31,0,0,1-.33,2.11,5.47,5.47,0,0,1-.9,1.63,5.39,5.39,0,0,1-1.33,1.19,8.07,8.07,0,0,1-1.64.81,10.11,10.11,0,0,1-1.84.46,13.36,13.36,0,0,1-1.89.14,11.58,11.58,0,0,1-1.7-.13,11.36,11.36,0,0,1-1.79-.43,8.71,8.71,0,0,1-1.68-.75,5.86,5.86,0,0,1-1.41-1.11,4.92,4.92,0,0,1-1-1.49A4.68,4.68,0,0,1,168.08,39.14Z" transform="translate(-9.59 -20.96)"/><path class="cls-1" d="M134.45,126.32a8.3,8.3,0,0,1-2.48-.63c-.39-.14-.76-.27-1.11-.37s-.53-.14-.8-.21a8.63,8.63,0,0,1-1.35-.41c-1.07-.49-1.76-1.49-3.06-3.45,2.6-2.12,4.75-6.36,6.19-9.5,1-2.22,1.9-4.53,2.76-6.77.46-1.22.93-2.44,1.42-3.66.25-.6.45-1.27.67-2a12.1,12.1,0,0,1,1.52-3.59,1.51,1.51,0,0,1,.62.45c1.06,1.21,2.12,4.74,1.14,14.71l-.07.81c-.33,3.45-1.31,14-5.15,14.56A1.53,1.53,0,0,1,134.45,126.32Z" transform="translate(-9.59 -20.96)"/><path class="cls-2" d="M138.42,97.41c.64,1.27,1.42,4.63.56,13.42l0,.17-.06.63c-1.07,11.48-3.16,13.5-4.3,13.68h-.15a7.7,7.7,0,0,1-2.14-.57c-.38-.14-.78-.28-1.17-.39l-.84-.22a8.34,8.34,0,0,1-1.17-.35c-.68-.31-1.17-.91-2.17-2.38,2.45-2.37,4.43-6.28,5.79-9.24,1-2.25,1.92-4.58,2.78-6.83.46-1.2.93-2.44,1.42-3.64.26-.65.48-1.36.7-2a22.61,22.61,0,0,1,.77-2.24m-.59-2.72c-1.5,1.44-2,4.33-2.73,6.26-1.41,3.46-2.62,7-4.17,10.38-1.33,2.91-3.82,8-6.65,9.66,1.75,2.63,2.53,3.94,4,4.62a18.76,18.76,0,0,0,2.28.67,15.06,15.06,0,0,0,3.87,1,2.32,2.32,0,0,0,.46,0c4.85-.76,5.67-12.29,6-16.09.29-2.92,1.69-16.36-3.12-16.5Z" transform="translate(-9.59 -20.96)"/><path class="cls-1" d="M178.6,171.89c-2.07,0-5.7-3.49-7.35-7a39.28,39.28,0,0,1,5.27-5.1,50.84,50.84,0,0,0,4.44-4.11l1.4-1.47c1-1.07,2.08-2.17,3-3.35a15,15,0,0,0,1.3-2.13,8.48,8.48,0,0,1,1.83-2.65,1.51,1.51,0,0,1,.7-.33c.31.24.88,2.37-.45,9.08a31.09,31.09,0,0,1-5.41,12.5l-.27.36c-1,1.28-2.91,3.93-4.22,4.15A1.14,1.14,0,0,1,178.6,171.89Z" transform="translate(-9.59 -20.96)"/><path class="cls-2" d="M189.38,146.76h0m-.81.74a34.38,34.38,0,0,1-6,19.26l-.27.37c-1.77,2.38-3,3.64-3.59,3.76h-.08c-1.44,0-4.53-2.8-6.17-5.84a42.49,42.49,0,0,1,4.73-4.47,52.52,52.52,0,0,0,4.52-4.19l1.38-1.46c1.05-1.08,2.12-2.2,3.09-3.42a15.93,15.93,0,0,0,1.4-2.28c.3-.55.67-1.24,1-1.73m.64-2.72a2.35,2.35,0,0,0-1.27.5c-1.36.94-2.28,3.64-3.34,5-1.34,1.67-2.91,3.18-4.38,4.76-3.11,3.38-7.43,6.1-10.12,9.75,1.5,3.62,5.64,8.11,8.51,8.11a2.73,2.73,0,0,0,.41,0c1.85-.31,4-3.42,5.13-4.9a32.19,32.19,0,0,0,5.58-12.87c.27-1.36,2.07-10.31-.52-10.31Z" transform="translate(-9.59 -20.96)"/><path class="cls-1" d="M59.68,126.31c-3.87-.33-5.59-10.75-6.15-14.18l-.13-.79c-1.67-9.89-.86-13.48.12-14.76a1.58,1.58,0,0,1,.59-.49,12.12,12.12,0,0,1,1.76,3.47c.27.69.52,1.34.8,1.93.58,1.17,1.13,2.36,1.68,3.54,1,2.18,2,4.42,3.22,6.57,1.66,3,4.1,7.12,6.84,9-1.17,2-1.79,3.1-2.82,3.66a8.08,8.08,0,0,1-1.32.5l-.78.26c-.34.13-.7.29-1.08.46a7.68,7.68,0,0,1-2.58.8Z" transform="translate(-9.59 -20.96)"/><path class="cls-2" d="M54,97.75a23,23,0,0,1,.93,2.18c.26.67.53,1.37.84,2,.56,1.16,1.12,2.37,1.66,3.53,1,2.19,2.07,4.45,3.26,6.62,1.56,2.86,3.8,6.62,6.41,8.82-.89,1.54-1.34,2.16-2,2.52a8.38,8.38,0,0,1-1.14.43c-.28.09-.56.18-.82.28s-.77.31-1.15.47a7.13,7.13,0,0,1-2.17.72h-.07c-2.69-.23-4.44-8.45-5.24-13.34l-.11-.63,0-.17c-1.46-8.7-.92-12.11-.37-13.42m.4-2.76c-4.79.48-2.46,13.79-2,16.69.63,3.75,2.26,15.21,7.15,15.63h.24c1.31,0,2.81-.87,4-1.32a17,17,0,0,0,2.23-.82c1.43-.78,2.12-2.14,3.69-4.89-2.94-1.49-5.78-6.36-7.31-9.17-1.78-3.26-3.24-6.71-4.88-10.07C56.66,99.18,56,96.33,54.41,95Z" transform="translate(-9.59 -20.96)"/><path class="cls-1" d="M21.58,171.89a1,1,0,0,1-.25,0c-1.32-.22-3.28-2.87-4.23-4.15l-.27-.36a31,31,0,0,1-5.4-12.46c-1.34-6.75-.76-8.88-.43-9.14a2.76,2.76,0,0,1,.67.35,8.55,8.55,0,0,1,1.83,2.64,14.59,14.59,0,0,0,1.3,2.14c.94,1.18,2,2.28,3,3.35l1.4,1.47a51,51,0,0,0,4.45,4.11,39.79,39.79,0,0,1,5.26,5.1C27.29,168.4,23.65,171.89,21.58,171.89Z" transform="translate(-9.59 -20.96)"/><path class="cls-2" d="M11.79,146.36h0m-.18,1.13c.34.5.71,1.19,1,1.74a15.93,15.93,0,0,0,1.4,2.28c1,1.22,2.05,2.34,3.09,3.42.46.49.93,1,1.38,1.46A52.52,52.52,0,0,0,23,160.58a42.49,42.49,0,0,1,4.73,4.47c-1.64,3-4.73,5.84-6.16,5.84h-.09c-.62-.12-1.82-1.38-3.58-3.76l-.28-.37a30.39,30.39,0,0,1-5.22-12.09,30.1,30.1,0,0,1-.8-7.18M11,144.78c-2.59,0-.79,8.95-.52,10.31A32.33,32.33,0,0,0,16,168c1.11,1.48,3.28,4.59,5.13,4.9a2.86,2.86,0,0,0,.42,0c2.86,0,7-4.49,8.5-8.11-2.69-3.65-7-6.37-10.12-9.75-1.46-1.58-3-3.09-4.37-4.76-1.07-1.35-2-4.05-3.35-5a2.35,2.35,0,0,0-1.27-.5Z" transform="translate(-9.59 -20.96)"/><path class="cls-6" d="M34.93,214.11a17.5,17.5,0,0,1,8,14.75C42.38,312.43,35,395.79,28.06,479.15h145.1c-6.41-101.95-13.58-215.82-15.72-249.84a17.51,17.51,0,0,1,7.64-15.59,77.5,77.5,0,0,0,7.14-5.23c8.63-7.92,14.19-23.33,12.67-35.07-1.08-8.36-5.46-15-12.32-18.59a23.67,23.67,0,0,0-11.14-2.75,28,28,0,0,0-12.42,3c2.29-9.22,1.79-20.07-1.77-28-3.48-7.67-9.58-12.71-17.21-14.18a24.22,24.22,0,0,0-4.49-.43c-13.41,0-23,11-28.36,22.73-5.34-11.71-14.93-22.69-28.33-22.69a24.41,24.41,0,0,0-4.5.43c-7.62,1.47-13.73,6.51-17.2,14.18-3.28,7.27-4,17.06-2.26,25.77A26.22,26.22,0,0,0,38,152a23.57,23.57,0,0,0-10.81,2.59c-6.91,3.52-11.39,10-12.59,18.39-1.7,11.72,3.64,27.21,12.14,35.27A82.13,82.13,0,0,0,34.93,214.11Z" transform="translate(-9.59 -20.96)"/><path class="cls-7" d="M173.16,479.15C167.8,394,161.92,300.53,158.88,252.22l-.25.38-2.21-.87-1.09-.44-.67,1-1.82,2.59a1.72,1.72,0,0,1-2.11.58l-1-.45-1.09-.49-.71,1-1.8,2.4a1.72,1.72,0,0,1-2.15.5l-1.08-.54-1.08-.55-.75.95-1.77,2.22a1.73,1.73,0,0,1-2.18.43l-1.16-.65-1.07-.6-.79.94-1.74,2a1.72,1.72,0,0,1-2.2.36l-1.24-.76-1-.64-.83.91c-.56.63-1.13,1.26-1.7,1.88a1.71,1.71,0,0,1-2.22.28l-1.32-.87-1-.69-.86.89-1.66,1.73a1.73,1.73,0,0,1-2.24.2l-1.39-1-1-.73-.89.87-1.62,1.57a1.72,1.72,0,0,1-2.24.13l-1.46-1.13-1-.76-.92.84-1.56,1.42a1.73,1.73,0,0,1-2.25.05l-1.52-1.26-1-.8-1,.81-1.51,1.28a1.72,1.72,0,0,1-2.25,0l-1.58-1.4-.93-.83-1,.78-1.43,1.14a1.73,1.73,0,0,1-2.25-.1c-.55-.51-1.09-1-1.63-1.55l-.9-.86-1,.74-1.36,1a1.72,1.72,0,0,1-2.24-.17l-1.68-1.7-.87-.89-1,.71-1.29.88a1.74,1.74,0,0,1-2.24-.25l-1.71-1.86-.84-.91-1,.66-1.22.77a1.72,1.72,0,0,1-2.21-.33l-1.75-2-.8-.93-2.17,1.27a1.75,1.75,0,0,1-1.18.21h0a1.74,1.74,0,0,1-1-.61c-.59-.72-1.19-1.45-1.78-2.19l-.76-.95-2.1,1.12a1.76,1.76,0,0,1-1.19.16h0a1.66,1.66,0,0,1-1-.64c-.61-.78-1.21-1.57-1.81-2.36l-.72-1-1.87.9a1.77,1.77,0,0,1-1.57,0l-.34-.19a1.77,1.77,0,0,1-.58-.51c-.54-.76-1.09-1.52-1.63-2.29l-.69-1-.5.21c-1.58,75.76-8.21,151.36-14.54,227Z" transform="translate(-9.59 -20.96)"/><path class="cls-8" d="M38.89,333.25c.67-.81.88-1.72,1.52-2.39a2.5,2.5,0,0,0,.4-.31c5.35-5.32,10.43-8.76,16-10.82,1.61-.6,3.31-1.08,5-1.54A44.87,44.87,0,0,0,69,315.71c3.39-1.63,5.6-3.78,6.58-6.41a9.58,9.58,0,0,0,.42-3.56,9.43,9.43,0,0,1,.27-2.93c.49-1.55,2-2.48,3.43-3.38a16.28,16.28,0,0,0,2-1.44c1.39-1.21,4.42-4.38,2.75-7.65s-6.84-3.95-10.29-4.49l-1-.16a35,35,0,0,0-16,.91c-3.7,1.1-6.62,1.87-10.59,1.65a18.66,18.66,0,0,0-4.44.09c0-.09,0-.17,0-.26a7.75,7.75,0,0,0-.7.36,12.32,12.32,0,0,0-1,.77q-.91,22.35-2.27,44.7A4.45,4.45,0,0,0,38.89,333.25Z" transform="translate(-9.59 -20.96)"/><path class="cls-8" d="M30,468.49v-.42a1.43,1.43,0,0,0,.33-.47c.81-1.88,3.62-2.86,6.09-3.73a24.41,24.41,0,0,0,2.84-1.12l.37-.18c2.25-1.11,5-2.5,5.87-5.23.77-2.52-.45-4.39-1.75-5.88a8.49,8.49,0,0,0-.92-.83,4,4,0,0,1-1.26-1.34,5.77,5.77,0,0,1,1.06-5,29,29,0,0,1,2.14-2.41,26.6,26.6,0,0,0,2.53-2.94l.68-1c1.81-2.63,3.24-4.72,6.11-6.41a38.51,38.51,0,0,1,10.67-3.8l3.2-.73c5.47-1.22,11.14-2.49,15.78-5.8,3.32-2.37,5.47-5.48,5.9-8.55a8.42,8.42,0,0,0-1.94-6.57,15,15,0,0,0-7.57-4.76A42.67,42.67,0,0,0,73,400a16.76,16.76,0,0,0-2.64,0c-1.47.08-3.14.17-4-.3-2.15-1.2-1.8-2.23-1.27-3.8a5.28,5.28,0,0,0,.28-3.65c-.9-2.5-3.55-3.24-6-3.64-.68-.1-1.53-.2-2.46-.3-3.63-.41-9.13-1-10.07-3.43-.45-1.15.17-2.72,1.86-4.65a31.6,31.6,0,0,1,2.51-2.42c3.3-3,7.41-6.73,6-10.77-1.73-5.12-9-4.67-14.84-4.31a30.34,30.34,0,0,1-5.53.05,1.15,1.15,0,0,0-.32,0c0-.08,0-.15,0-.23l-.23,0c-2.41,34.94-5.33,69.7-8.2,104l-.27,3.18.06,0A6.16,6.16,0,0,0,30,468.49Z" transform="translate(-9.59 -20.96)"/><path class="cls-8" d="M165,353.51v.17c-2.54,3.93-6.78,5.52-13.74,5.13l-3.77-.23c-4.36-.28-8.87-.56-13.37-.4-7.69.28-16.7.91-25.23,3.48l-.93.28c-3.83,1.12-10.26,3-11.44,7.16a4.11,4.11,0,0,0,.47,3.51c1.81,2.8,6.91,4.09,10.88,4.69l2,.28c1.67.22,3.4.46,5.06.85,3.53.84,5.28,2.16,6.94,5.23s4,4.67,7.82,5.28a44.5,44.5,0,0,0,9.72.11c1.13-.07,2.25-.14,3.37-.18,7.91-.27,13.61,1.8,17.95,6.52,2.79,3,5.43,6.58,3.89,9.83-.93,2-3.22,2.89-5.49,3.67-1.6.54-3.25,1-4.86,1.39a40.21,40.21,0,0,0-7.94,2.64,12,12,0,0,0-6.67,8,9.71,9.71,0,0,0,2.35,8.36c2.25,2.66,5.5,4.66,9.95,6.12l.9.29c2.79.88,6.6,2.08,6.84,5.29.11,1.52-.64,2.26-1.51,3.12a6.66,6.66,0,0,0-1.59,2.06c-1.55,3.57,2.11,6.22,3.86,7.49.36.26.74.5,1.11.73a13.19,13.19,0,0,1,1.35.9c1.79,1.45,2.61,3.41,3.47,5.49l.32.77a38.13,38.13,0,0,0,2,3.74,25.9,25.9,0,0,1,2.53,5.18l0,.4.25.27a8.91,8.91,0,0,0,2.21,1.52l-7.56-120.18a3,3,0,0,0-.38.31Z" transform="translate(-9.59 -20.96)"/><path class="cls-8" d="M159.74,287.14a13.91,13.91,0,0,0-1.35,1.5,13.89,13.89,0,0,1-7.22,5A42.05,42.05,0,0,0,139,300.11a4.2,4.2,0,0,0-1.78,3.93c.35,2.8,3.48,5.75,6.3,7a8.34,8.34,0,0,0,1.09.35c1.21.35,3.22.92,3.59,1.92a1.54,1.54,0,0,1-.35,1.38,2.67,2.67,0,0,1-1.24.66,3.8,3.8,0,0,0-1.46.74c-1,1-1.82,2.55,0,4.67,1.49,1.68,3.52,1.89,5.49,2.09a9.18,9.18,0,0,1,4.09,1.05,10.17,10.17,0,0,1,2.76,2.9c.41.55.83,1.12,1.31,1.67a22.32,22.32,0,0,0,1.85,1.8c1.38,1.25,2.67,2.42,3.21,4.3a1.33,1.33,0,0,0,.3.53l.06.52a4,4,0,0,0,.41.41,4.17,4.17,0,0,0,.44.29L162,286.19c-.73.27-1.47.53-2.23.77A1.1,1.1,0,0,0,159.74,287.14Z" transform="translate(-9.59 -20.96)"/><path class="cls-4" d="M126.31,161.76c-6,0-13.74-3.53-16.86-7.7a5.37,5.37,0,0,1-1.21-4.81c2.87-9.7,9.51-20.13,17.3-20.13a9.33,9.33,0,0,1,1.74.17c2.91.56,5.15,2.53,6.66,5.86,3.29,7.28,2,18.4-1.18,23.84C131.42,161.28,128.51,161.76,126.31,161.76Z" transform="translate(-9.59 -20.96)"/><path class="cls-2" d="M125.54,130.1h0a8.14,8.14,0,0,1,1.55.15c2.59.49,4.59,2.28,6,5.3,3.08,6.81,1.94,17.73-1.12,22.95-1.11,1.89-3.67,2.28-5.62,2.28-5.76,0-13.12-3.34-16.08-7.3a4.5,4.5,0,0,1-1.06-4,41.9,41.9,0,0,1,6.61-13.35c2.16-2.77,5.61-6.07,9.76-6.07m0-1.95c-8.63,0-15.4,11.26-18.23,20.82-2,6.73,10.29,13.76,19,13.76,3.22,0,5.95-1,7.29-3.25,5-8.47,5.05-29-6.14-31.15a10.56,10.56,0,0,0-1.92-.18Z" transform="translate(-9.59 -20.96)"/><path class="cls-4" d="M68.08,161.8c-2.21,0-5.11-.48-6.46-2.77-3.19-5.44-4.46-16.56-1.17-23.84,1.51-3.33,3.75-5.3,6.66-5.86a9.33,9.33,0,0,1,1.74-.17c7.79,0,14.43,10.43,17.3,20.13a5.35,5.35,0,0,1-1.22,4.81C81.82,158.27,74.1,161.8,68.08,161.8Z" transform="translate(-9.59 -20.96)"/><path class="cls-2" d="M68.85,128.19v1.95c4.15,0,7.59,3.3,9.75,6.07a41.69,41.69,0,0,1,6.61,13.35,4.47,4.47,0,0,1-1.06,4c-3,4-10.32,7.3-16.07,7.3-2,0-4.51-.39-5.62-2.28-3.07-5.22-4.2-16.14-1.12-22.95,1.37-3,3.37-4.81,6-5.3a8.06,8.06,0,0,1,1.55-.15v-1.95m0,0a9.76,9.76,0,0,0-1.92.19c-11.2,2.15-11.13,22.67-6.15,31.14,1.35,2.29,4.08,3.25,7.3,3.25,8.71,0,21-7,19-13.76-2.83-9.56-9.6-20.82-18.23-20.82Z" transform="translate(-9.59 -20.96)"/><path class="cls-4" d="M42.84,201.34a5,5,0,0,1-3-.89c-5.13-3.66-10.83-13.31-10.79-21.29,0-3.65,1.26-6.37,3.69-8.07a9.43,9.43,0,0,1,5.47-1.67c7.14,0,15.26,6.54,20,12.13,1.92,2.24.8,5.63,0,7.44C55.35,195.34,47.85,201.34,42.84,201.34Z" transform="translate(-9.59 -20.96)"/><path class="cls-2" d="M38.26,170.4c4.25,0,11.85,3.08,19.3,11.79,1.57,1.82.56,4.79-.18,6.4-2.78,6-9.85,11.77-14.54,11.77a4,4,0,0,1-2.39-.7c-4.93-3.52-10.42-13-10.39-20.5,0-3.31,1.12-5.76,3.28-7.27a8.41,8.41,0,0,1,4.92-1.49m0-2a10.3,10.3,0,0,0-6,1.84c-9.35,6.54-.92,25.24,7.09,31a5.9,5.9,0,0,0,3.52,1.07c8.72,0,21.65-15,16.2-21.39s-13.63-12.47-20.78-12.47Z" transform="translate(-9.59 -20.96)"/><path class="cls-4" d="M156.55,201.34c-5,0-12.5-6-15.42-12.35-.84-1.81-2-5.2,0-7.44,4.79-5.59,12.92-12.13,20-12.13a9.39,9.39,0,0,1,5.47,1.67c2.43,1.7,3.67,4.42,3.69,8.07,0,8-5.66,17.63-10.79,21.29a5,5,0,0,1-3,.89Z" transform="translate(-9.59 -20.96)"/><path class="cls-2" d="M161.14,170.4a8.41,8.41,0,0,1,4.91,1.49c2.16,1.51,3.26,4,3.28,7.27,0,7.47-5.45,17-10.38,20.5a4,4,0,0,1-2.4.7c-4.69,0-11.75-5.72-14.54-11.77-.74-1.61-1.75-4.58-.18-6.4,7.45-8.71,15.06-11.79,19.31-11.79m0-2c-7.16,0-15.43,6.22-20.79,12.47s7.49,21.39,16.2,21.39a6,6,0,0,0,3.53-1.07c8-5.71,16.43-24.41,7.09-31a10.34,10.34,0,0,0-6-1.84Z" transform="translate(-9.59 -20.96)"/><path class="cls-4" d="M126.74,232.81c-3.19,0-6.53-1.61-10.39-3.47-4.78-2.31-10.2-4.92-16.65-4.92S87.83,227,83,229.34c-3.86,1.86-7.2,3.47-10.39,3.47s-5.88-1.64-8.59-5.16c-2.47-3.2-.24-17,6.43-30.76,3.72-7.66,14-25.49,29.22-25.64h.17c14.68,0,25,17.7,28.72,25.31,6.84,13.92,9.2,27.89,6.73,31.09C132.62,231.17,129.89,232.81,126.74,232.81Z" transform="translate(-9.59 -20.96)"/><path class="cls-2" d="M99.88,172.23c14.13,0,24.18,17.32,27.84,24.76,7,14.29,8.77,27.56,6.84,30.07-3.3,4.28-6,4.78-7.81,4.78-3,0-6.22-1.57-10-3.38-4.87-2.35-10.4-5-17.07-5s-12.2,2.67-17.08,5c-3.76,1.81-7,3.38-10,3.38-1.78,0-4.52-.5-7.82-4.78-1.93-2.51-.31-15.65,6.54-29.75,3.64-7.49,13.69-24.94,28.34-25.08h.17m0-1.95H99.7c-26.11.25-42.12,50.55-36.41,58,3.15,4.09,6.21,5.54,9.36,5.54,7.59,0,15.72-8.4,27.05-8.4s19.46,8.4,27.05,8.4c3.14,0,6.2-1.45,9.35-5.54,5.7-7.4-10.85-58-36.22-58Z" transform="translate(-9.59 -20.96)"/><path class="cls-2" d="M34.4,214.92a16.45,16.45,0,0,1,7.54,13.94c-.5,79.33-7.26,159.8-13.79,237.64q-.52,6.3-1.06,12.65H29q.53-6.25,1.05-12.49c6.53-77.87,13.29-158.39,13.8-237.79a18.39,18.39,0,0,0-8.43-15.58,69.2,69.2,0,0,1-8.08-5.73c-8.3-7.86-13.5-23-11.85-34.42,1.16-8,5.45-14.29,12.07-17.67a23.42,23.42,0,0,1,17-1.56,1,1,0,0,0,.92-.23,1,1,0,0,0,.29-.9c-1.74-8.87-.92-18.29,2.2-25.17,3.34-7.39,9.2-12.23,16.5-13.63a23.13,23.13,0,0,1,4.31-.41c15.66,0,24.41,15.46,27.45,22.11a1,1,0,0,0,1.77,0c3-6.66,11.79-22.15,27.47-22.15a22.32,22.32,0,0,1,4.31.41c7.3,1.4,13.16,6.24,16.5,13.63s4.05,18,1.71,27.31a1,1,0,0,0,1.38,1.11c7.73-3.79,15.86-3.9,22.67-.3,6.58,3.48,10.77,9.82,11.81,17.85C185.41,185,180,200,171.57,207.78h0a78.66,78.66,0,0,1-7,5.14,18.55,18.55,0,0,0-8.07,16.45l15.71,249.78h1.95l-15.72-249.9a16.61,16.61,0,0,1,7.22-14.72,76.41,76.41,0,0,0,7.25-5.32h0c8.83-8.12,14.53-23.9,13-35.92-1.12-8.68-5.68-15.54-12.83-19.32-6.83-3.6-14.9-3.79-22.63-.55,1.89-9.25,1.06-19.3-2.27-26.66-3.6-8-10-13.2-17.9-14.73a24.65,24.65,0,0,0-4.68-.45c-15.46,0-24.52,13.78-28.36,21.44-3.83-7.64-12.89-21.4-28.33-21.4a24.65,24.65,0,0,0-4.68.45c-7.94,1.53-14.3,6.76-17.9,14.73-3.11,6.86-4.05,16-2.6,24.87a25.1,25.1,0,0,0-17,2.07c-7.21,3.67-11.86,10.46-13.12,19.12-1.73,12,3.73,27.86,12.44,36.11A75.06,75.06,0,0,0,34.4,214.92Z" transform="translate(-9.59 -20.96)"/><path class="cls-5" d="M24.33,39.14a3.71,3.71,0,0,1,.51-1.85,1.67,1.67,0,0,1,1.5-.63,1.75,1.75,0,0,1,1.15.38A1.26,1.26,0,0,1,28,38.09a4.11,4.11,0,0,1-.07.78,2.72,2.72,0,0,0,0,.81,1.63,1.63,0,0,0,.45.93,3.42,3.42,0,0,0,1,.72,5.31,5.31,0,0,0,1.36.48A6.76,6.76,0,0,0,32.2,42a8.68,8.68,0,0,0,1.61-.14,4.06,4.06,0,0,0,1.45-.53,3,3,0,0,0,1.06-1.06,3.36,3.36,0,0,0,.4-1.75,2.71,2.71,0,0,0-.34-1.33A4.72,4.72,0,0,0,35.5,36a7.81,7.81,0,0,0-1.19-.94c-.44-.28-.85-.52-1.25-.73-.57-.29-1.15-.57-1.75-.85s-1.17-.56-1.73-.87a13,13,0,0,1-1.6-1,6.21,6.21,0,0,1-1.33-1.28,5.5,5.5,0,0,1-.89-1.7,6.89,6.89,0,0,1-.33-2.23A4.82,4.82,0,0,1,26,24a5.41,5.41,0,0,1,1.6-1.7,7,7,0,0,1,2.26-1A11,11,0,0,1,32.52,21a12.59,12.59,0,0,1,2.32.21,7,7,0,0,1,2,.68,4.37,4.37,0,0,1,1.47,1.26A3.79,3.79,0,0,1,39,25a1.59,1.59,0,0,1-.1.74,1.43,1.43,0,0,1-.38.54,1.87,1.87,0,0,1-.54.33,1.93,1.93,0,0,1-.62.11,2,2,0,0,1-.81-.15,1.67,1.67,0,0,1-.54-.37,1.49,1.49,0,0,1-.31-.51,2.34,2.34,0,0,1-.14-.55,2,2,0,0,0-.58-.6,3.91,3.91,0,0,0-.8-.37,4.7,4.7,0,0,0-.92-.19,7.5,7.5,0,0,0-.93-.06,5.84,5.84,0,0,0-1.25.14,3.84,3.84,0,0,0-1.13.43,2.52,2.52,0,0,0-.82.77,1.93,1.93,0,0,0-.32,1.13,2.66,2.66,0,0,0,.38,1.41,4.42,4.42,0,0,0,.94,1.09,8.26,8.26,0,0,0,1.26.87c.47.26.92.5,1.36.72s1.08.55,1.64.86a18.79,18.79,0,0,1,1.67,1,14.81,14.81,0,0,1,1.55,1.15,8.12,8.12,0,0,1,1.29,1.4,6.6,6.6,0,0,1,.87,1.69,5.91,5.91,0,0,1,.32,2,6.59,6.59,0,0,1-.32,2.11,5.47,5.47,0,0,1-.9,1.63,5.57,5.57,0,0,1-1.33,1.19,7.9,7.9,0,0,1-1.65.81,10.21,10.21,0,0,1-1.83.46,13.61,13.61,0,0,1-1.9.14,11.45,11.45,0,0,1-1.69-.13,11.1,11.1,0,0,1-1.79-.43A8.79,8.79,0,0,1,27,43.65a5.62,5.62,0,0,1-1.4-1.11,4.74,4.74,0,0,1-1-1.49A4.68,4.68,0,0,1,24.33,39.14Z" transform="translate(-9.59 -20.96)"/><path class="cls-5" d="M43.92,33.2a15.1,15.1,0,0,1,.47-3.9,12.24,12.24,0,0,1,1.3-3.1,9.9,9.9,0,0,1,1.93-2.35A10.65,10.65,0,0,1,50,22.22a11.19,11.19,0,0,1,2.69-.95A12.62,12.62,0,0,1,55.49,21a13.73,13.73,0,0,1,2.49.23,17.44,17.44,0,0,1,2.43.65l.72.27a2.53,2.53,0,0,1,.66.32,1.39,1.39,0,0,1,.65,1.25,1.94,1.94,0,0,1-.17.89,1.5,1.5,0,0,1-.44.57,1.71,1.71,0,0,1-.59.29,2.32,2.32,0,0,1-.62.09,1.86,1.86,0,0,1-.45-.06l-.49-.17a4.66,4.66,0,0,1-.5-.25l-.43-.28a7.5,7.5,0,0,0-1-.34c-.32-.07-.62-.12-.91-.16L56,24.2h-.84a8.61,8.61,0,0,0-1.88.22,7.52,7.52,0,0,0-1.82.67,8.23,8.23,0,0,0-1.64,1.15,6.7,6.7,0,0,0-1.32,1.64A8.43,8.43,0,0,0,47.59,30a10.77,10.77,0,0,0-.32,2.71A11,11,0,0,0,48,36.93a7.75,7.75,0,0,0,1.86,2.78,6.81,6.81,0,0,0,2.58,1.53,9.08,9.08,0,0,0,2.9.47,9.79,9.79,0,0,0,1.33-.08,10.48,10.48,0,0,0,1.21-.21,8.59,8.59,0,0,0,1-.28,2.9,2.9,0,0,0,.66-.32,5.16,5.16,0,0,1,.79-.59,1.52,1.52,0,0,1,.8-.21,2.75,2.75,0,0,1,.65.08,1.38,1.38,0,0,1,.53.26,1.3,1.3,0,0,1,.36.49,1.82,1.82,0,0,1,.13.74,1.79,1.79,0,0,1-.42,1.15,4.08,4.08,0,0,1-1.37,1h0a6.83,6.83,0,0,1-.92.4,12.29,12.29,0,0,1-1.36.41c-.51.13-1,.23-1.6.32a11.67,11.67,0,0,1-1.64.13,12.28,12.28,0,0,1-3.41-.45,11.17,11.17,0,0,1-2.84-1.22,10.57,10.57,0,0,1-2.27-1.88A11.49,11.49,0,0,1,45.28,39a12,12,0,0,1-1-2.78A13.22,13.22,0,0,1,43.92,33.2Z" transform="translate(-9.59 -20.96)"/><path class="cls-5" d="M68.74,43.32a9.51,9.51,0,0,1,.12-1.51A11.2,11.2,0,0,0,69,40.23c0-2.54,0-5.1-.07-7.67s-.07-5.22-.07-7.93a4.17,4.17,0,0,0-.09-.85,4.42,4.42,0,0,1-.09-.92,2.48,2.48,0,0,1,.11-.73,1.52,1.52,0,0,1,.36-.61,1.75,1.75,0,0,1,.7-.41A3.57,3.57,0,0,1,70.94,21a1.25,1.25,0,0,1,1.06.51,2.18,2.18,0,0,1,.39,1.36,2.74,2.74,0,0,1,0,.5l-.09.52c0,.86,0,1.78-.05,2.77s0,2.12,0,3.39,0,2.3,0,3.49,0,2.33.05,3.43,0,2.12.08,3.07.08,1.77.13,2.46h0c0,.15,0,.29,0,.42a3,3,0,0,1,0,.42,2.34,2.34,0,0,1-.08.66,1.23,1.23,0,0,1-.28.53,1.2,1.2,0,0,1-.53.35,2.66,2.66,0,0,1-.86.12,3.87,3.87,0,0,1-1-.11,1.43,1.43,0,0,1-.63-.31,1.14,1.14,0,0,1-.33-.52A2.44,2.44,0,0,1,68.74,43.32Z" transform="translate(-9.59 -20.96)"/><path class="cls-5" d="M78.84,39.14a3.82,3.82,0,0,1,.5-1.85,1.7,1.7,0,0,1,1.51-.63A1.75,1.75,0,0,1,82,37a1.26,1.26,0,0,1,.48,1.05,4.13,4.13,0,0,1-.08.78,3.1,3.1,0,0,0,0,.81,1.63,1.63,0,0,0,.45.93,3.42,3.42,0,0,0,1,.72,5.18,5.18,0,0,0,1.36.48,6.7,6.7,0,0,0,1.55.17,8.68,8.68,0,0,0,1.61-.14,4.13,4.13,0,0,0,1.45-.53,3,3,0,0,0,1.06-1.06,3.36,3.36,0,0,0,.4-1.75,2.71,2.71,0,0,0-.34-1.33A4.77,4.77,0,0,0,90,36a7.27,7.27,0,0,0-1.18-.94c-.44-.28-.86-.52-1.25-.73-.57-.29-1.15-.57-1.75-.85s-1.17-.56-1.73-.87a12.32,12.32,0,0,1-1.6-1,6.21,6.21,0,0,1-1.33-1.28,5.74,5.74,0,0,1-.9-1.7,6.89,6.89,0,0,1-.33-2.23A4.82,4.82,0,0,1,80.54,24a5.38,5.38,0,0,1,1.59-1.7,7.19,7.19,0,0,1,2.27-1A11,11,0,0,1,87,21a12.59,12.59,0,0,1,2.32.21,7.14,7.14,0,0,1,2,.68,4.37,4.37,0,0,1,1.47,1.26,3.79,3.79,0,0,1,.7,1.92,1.59,1.59,0,0,1-.1.74,1.43,1.43,0,0,1-.38.54,1.87,1.87,0,0,1-.54.33,2,2,0,0,1-.62.11,2,2,0,0,1-.81-.15,1.67,1.67,0,0,1-.54-.37,1.52,1.52,0,0,1-.32-.51,2.3,2.3,0,0,1-.13-.55,2,2,0,0,0-.58-.6,3.91,3.91,0,0,0-.8-.37,4.85,4.85,0,0,0-.92-.19,7.5,7.5,0,0,0-.93-.06,5.84,5.84,0,0,0-1.25.14,3.74,3.74,0,0,0-1.13.43,2.52,2.52,0,0,0-.82.77,1.93,1.93,0,0,0-.32,1.13,2.66,2.66,0,0,0,.38,1.41,4.22,4.22,0,0,0,.94,1.09,8.26,8.26,0,0,0,1.26.87c.47.26.92.5,1.36.72s1.07.55,1.64.86a18.79,18.79,0,0,1,1.67,1,15.94,15.94,0,0,1,1.55,1.15,8.12,8.12,0,0,1,1.29,1.4,6.6,6.6,0,0,1,.87,1.69,5.91,5.91,0,0,1,.32,2,6.31,6.31,0,0,1-.33,2.11,5.32,5.32,0,0,1-2.23,2.82,7.59,7.59,0,0,1-1.64.81,10.21,10.21,0,0,1-1.83.46,13.61,13.61,0,0,1-1.9.14,11.58,11.58,0,0,1-1.7-.13,11.25,11.25,0,0,1-1.78-.43,8.79,8.79,0,0,1-1.69-.75,5.62,5.62,0,0,1-1.4-1.11,4.74,4.74,0,0,1-1-1.49A4.68,4.68,0,0,1,78.84,39.14Z" transform="translate(-9.59 -20.96)"/><path class="cls-5" d="M99.1,39.14a3.82,3.82,0,0,1,.5-1.85,1.7,1.7,0,0,1,1.51-.63,1.75,1.75,0,0,1,1.15.38,1.26,1.26,0,0,1,.48,1.05,4.13,4.13,0,0,1-.08.78,3.1,3.1,0,0,0,0,.81,1.63,1.63,0,0,0,.45.93,3.51,3.51,0,0,0,1,.72,5.39,5.39,0,0,0,1.37.48A6.64,6.64,0,0,0,107,42a8.68,8.68,0,0,0,1.61-.14,4.13,4.13,0,0,0,1.45-.53,3,3,0,0,0,1.06-1.06,3.36,3.36,0,0,0,.4-1.75,2.71,2.71,0,0,0-.34-1.33,4.77,4.77,0,0,0-.89-1.13,6.94,6.94,0,0,0-1.19-.94c-.43-.28-.85-.52-1.24-.73-.57-.29-1.15-.57-1.75-.85s-1.17-.56-1.73-.87a12.32,12.32,0,0,1-1.6-1,6.21,6.21,0,0,1-1.33-1.28,5.74,5.74,0,0,1-.9-1.7,6.89,6.89,0,0,1-.33-2.23A4.82,4.82,0,0,1,100.8,24a5.38,5.38,0,0,1,1.59-1.7,7.19,7.19,0,0,1,2.27-1,11,11,0,0,1,2.63-.32,12.67,12.67,0,0,1,2.32.21,7.14,7.14,0,0,1,2,.68,4.37,4.37,0,0,1,1.47,1.26,3.79,3.79,0,0,1,.7,1.92,1.59,1.59,0,0,1-.1.74,1.43,1.43,0,0,1-.38.54,1.87,1.87,0,0,1-.54.33,2,2,0,0,1-.63.11,1.94,1.94,0,0,1-.8-.15,1.67,1.67,0,0,1-.54-.37,1.52,1.52,0,0,1-.32-.51,2.3,2.3,0,0,1-.13-.55,2.07,2.07,0,0,0-.58-.6,3.76,3.76,0,0,0-.81-.37A4.55,4.55,0,0,0,108,24a7.22,7.22,0,0,0-.92-.06,5.84,5.84,0,0,0-1.25.14,3.74,3.74,0,0,0-1.13.43,2.43,2.43,0,0,0-.82.77,1.93,1.93,0,0,0-.32,1.13,2.74,2.74,0,0,0,.37,1.41,4.46,4.46,0,0,0,1,1.09,8.26,8.26,0,0,0,1.26.87c.47.26.92.5,1.36.72s1.07.55,1.64.86a18.79,18.79,0,0,1,1.67,1,15.94,15.94,0,0,1,1.55,1.15,8.12,8.12,0,0,1,1.29,1.4,6.93,6.93,0,0,1,.87,1.69,5.91,5.91,0,0,1,.32,2,6.31,6.31,0,0,1-.33,2.11,5.68,5.68,0,0,1-.89,1.63,5.43,5.43,0,0,1-1.34,1.19,7.59,7.59,0,0,1-1.64.81,10.21,10.21,0,0,1-1.83.46,13.61,13.61,0,0,1-1.9.14,11.58,11.58,0,0,1-1.7-.13,11,11,0,0,1-1.78-.43,8.79,8.79,0,0,1-1.69-.75,5.62,5.62,0,0,1-1.4-1.11,4.74,4.74,0,0,1-1-1.49A4.68,4.68,0,0,1,99.1,39.14Z" transform="translate(-9.59 -20.96)"/><path class="cls-5" d="M119.21,33a14.76,14.76,0,0,1,.76-4.87,11,11,0,0,1,2.14-3.78,9.45,9.45,0,0,1,3.33-2.46,11.36,11.36,0,0,1,8.77,0,8.84,8.84,0,0,1,3.23,2.46,10.74,10.74,0,0,1,2,3.78A16.57,16.57,0,0,1,140.1,33a15.06,15.06,0,0,1-.73,4.72,11.39,11.39,0,0,1-2.1,3.8A9.67,9.67,0,0,1,129.66,45a10.27,10.27,0,0,1-3-.42,9.33,9.33,0,0,1-2.55-1.2,9.94,9.94,0,0,1-2.08-1.86,11.58,11.58,0,0,1-1.54-2.42,12.59,12.59,0,0,1-1-2.87A15.45,15.45,0,0,1,119.21,33Zm3.41,0a11.92,11.92,0,0,0,.21,2.22,11,11,0,0,0,.62,2.09,9.35,9.35,0,0,0,1,1.84,7.22,7.22,0,0,0,1.39,1.47,6.37,6.37,0,0,0,1.75,1,6,6,0,0,0,2.09.35,6.09,6.09,0,0,0,3.91-1.32A6.55,6.55,0,0,0,135,39.1a9.16,9.16,0,0,0,1-1.84,11.68,11.68,0,0,0,.57-2.09,13.85,13.85,0,0,0,.18-2.22,13.44,13.44,0,0,0-.42-3.41A8.32,8.32,0,0,0,135,26.71a6.31,6.31,0,0,0-2.16-1.95A6.38,6.38,0,0,0,129.7,24a6.76,6.76,0,0,0-3,.65,6.27,6.27,0,0,0-2.22,1.81,8.43,8.43,0,0,0-1.38,2.8A13.34,13.34,0,0,0,122.62,33Z" transform="translate(-9.59 -20.96)"/><path class="cls-5" d="M145.32,42.85c0-.22,0-.43,0-.64s0-.41.06-.59V29.09c0-.83,0-1.65,0-2.45s0-1.62,0-2.46a4.48,4.48,0,0,1-.15-.59,4.32,4.32,0,0,1-.06-.7,2.28,2.28,0,0,1,.09-.63,1.89,1.89,0,0,1,.3-.56,1.47,1.47,0,0,1,.5-.39,1.52,1.52,0,0,1,.69-.15,10.81,10.81,0,0,1,1.27.07,12.71,12.71,0,0,0,1.46.08c.44,0,.89,0,1.34-.07s.93-.07,1.44-.08a17.68,17.68,0,0,1,4.09.44,8.81,8.81,0,0,1,3.13,1.4,6.24,6.24,0,0,1,2,2.4,7.91,7.91,0,0,1,.7,3.48,9.78,9.78,0,0,1-1.89,6,9.27,9.27,0,0,1-3.86,3,7.23,7.23,0,0,0,.43,1.52,4.33,4.33,0,0,0,.75,1.25,3.25,3.25,0,0,0,1.07.85,3,3,0,0,0,1.37.32,2.87,2.87,0,0,0,1-.18,1.7,1.7,0,0,0,.82-.7,2.6,2.6,0,0,1,.51-.54,1.23,1.23,0,0,1,.76-.23,1.7,1.7,0,0,1,1.26.45,1.54,1.54,0,0,1,.45,1.14,2.24,2.24,0,0,1-.37,1.23,3.34,3.34,0,0,1-1,1,5.67,5.67,0,0,1-1.61.7,7.61,7.61,0,0,1-2.09.27,5.63,5.63,0,0,1-3.47-1.13,6.76,6.76,0,0,1-1.2-1.19,8.25,8.25,0,0,1-.9-1.39,9.85,9.85,0,0,1-.61-1.44,12.81,12.81,0,0,1-.38-1.35h-2.21l-1.07,0h-1.16v2.18A7.66,7.66,0,0,0,149,42a6.19,6.19,0,0,1,.15,1.37,1.39,1.39,0,0,1-.18.73,1.52,1.52,0,0,1-.44.5,1.69,1.69,0,0,1-.58.3,2.12,2.12,0,0,1-1.42-.07,2,2,0,0,1-.64-.43,2.09,2.09,0,0,1-.43-.66A2.15,2.15,0,0,1,145.32,42.85Zm3.5-7.66.92,0,1,0,.85,0h.48a8.44,8.44,0,0,0,3.31-.55,5.08,5.08,0,0,0,2-1.47,5.15,5.15,0,0,0,1-2.09,10.35,10.35,0,0,0,.28-2.43,4.46,4.46,0,0,0-.35-1.85,3.64,3.64,0,0,0-.91-1.25,4.65,4.65,0,0,0-1.29-.77,7.49,7.49,0,0,0-1.45-.42,10.72,10.72,0,0,0-1.46-.17l-1.25,0-1.54,0-1.7,0c0,.38,0,.73,0,1s0,.61,0,.9,0,.59,0,.9v1c0,.68,0,1.31,0,1.9s0,1.15,0,1.7,0,1.11,0,1.67S148.79,34.58,148.82,35.19Zm7,2.87s0,0,0,0Z" transform="translate(-9.59 -20.96)"/><path class="cls-5" d="M168.08,39.14a3.82,3.82,0,0,1,.5-1.85,1.69,1.69,0,0,1,1.5-.63,1.78,1.78,0,0,1,1.16.38,1.26,1.26,0,0,1,.48,1.05,4.13,4.13,0,0,1-.08.78,3.1,3.1,0,0,0,0,.81,1.68,1.68,0,0,0,.44.93,3.42,3.42,0,0,0,1,.72,5.45,5.45,0,0,0,1.36.48A6.78,6.78,0,0,0,176,42a8.68,8.68,0,0,0,1.61-.14,4.13,4.13,0,0,0,1.45-.53,3,3,0,0,0,1.05-1.06,3.36,3.36,0,0,0,.41-1.75,2.73,2.73,0,0,0-.35-1.33,4.72,4.72,0,0,0-.88-1.13,7.35,7.35,0,0,0-1.19-.94c-.43-.28-.85-.52-1.25-.73-.57-.29-1.15-.57-1.74-.85s-1.17-.56-1.74-.87a13.84,13.84,0,0,1-1.6-1,6.4,6.4,0,0,1-1.32-1.28,5.74,5.74,0,0,1-.9-1.7,6.89,6.89,0,0,1-.33-2.23,4.73,4.73,0,0,1,.61-2.46,5.27,5.27,0,0,1,1.59-1.7,7.19,7.19,0,0,1,2.27-1,10.93,10.93,0,0,1,2.62-.32,12.51,12.51,0,0,1,2.32.21,7.1,7.1,0,0,1,2,.68,4.24,4.24,0,0,1,1.46,1.26,3.8,3.8,0,0,1,.71,1.92,1.58,1.58,0,0,1-.11.74,1.41,1.41,0,0,1-.37.54,1.79,1.79,0,0,1-.55.33,1.88,1.88,0,0,1-.62.11,2,2,0,0,1-.81-.15,1.62,1.62,0,0,1-.53-.37,1.52,1.52,0,0,1-.32-.51,2.3,2.3,0,0,1-.13-.55,2,2,0,0,0-.59-.6,3.68,3.68,0,0,0-.8-.37A4.55,4.55,0,0,0,177,24a7.5,7.5,0,0,0-.93-.06,5.82,5.82,0,0,0-1.24.14,3.64,3.64,0,0,0-1.13.43,2.56,2.56,0,0,0-.83.77,1.93,1.93,0,0,0-.31,1.13,2.65,2.65,0,0,0,.37,1.41,4.46,4.46,0,0,0,.95,1.09,7.79,7.79,0,0,0,1.26.87q.69.39,1.35.72c.53.27,1.08.55,1.65.86s1.12.63,1.67,1a15.94,15.94,0,0,1,1.55,1.15,8.06,8.06,0,0,1,1.28,1.4,7,7,0,0,1,.88,1.69,6.16,6.16,0,0,1,.32,2,6.31,6.31,0,0,1-.33,2.11,5.47,5.47,0,0,1-.9,1.63,5.39,5.39,0,0,1-1.33,1.19,8.07,8.07,0,0,1-1.64.81,10.11,10.11,0,0,1-1.84.46,13.36,13.36,0,0,1-1.89.14,11.58,11.58,0,0,1-1.7-.13,11.36,11.36,0,0,1-1.79-.43,8.71,8.71,0,0,1-1.68-.75,5.86,5.86,0,0,1-1.41-1.11,4.92,4.92,0,0,1-1-1.49A4.68,4.68,0,0,1,168.08,39.14Z" transform="translate(-9.59 -20.96)"/></svg>